<?xml version="1.0" encoding="UTF-8"?>
<svg id="Ebene_2" data-name="Ebene 2" xmlns="http://www.w3.org/2000/svg" xmlns:xlink="http://www.w3.org/1999/xlink" viewBox="0 0 734.23 755.85">
  <defs>
    <style>
      .cls-1 {
        fill: #fff;
      }

      .cls-2 {
        fill: #363636;
      }

      .cls-3 {
        fill: #bce2ec;
      }

      .cls-4 {
        fill: #595857;
      }

      .cls-5 {
        fill: #d3edfb;
        opacity: .59;
      }

      .cls-6 {
        fill: #ee762c;
      }

      .cls-7 {
        clip-path: url(#clippath);
      }
    </style>
    <clipPath id="clippath">
      <ellipse class="cls-1" cx="386.72" cy="416.03" rx="170.56" ry="166.13"/>
    </clipPath>
  </defs>
  <g id="_ŚC__1" data-name="ŚC„[_1">
    <g>
      <path class="cls-2" d="m594.94,264.25L313.27,4.97c-3.6-3.31-8.17-4.97-12.74-4.97s-9.14,1.66-12.74,4.97l-103.28,95.06v-40.54c0-6.53-5.29-11.82-11.82-11.82h-59.53c-6.53,0-11.82,5.29-11.82,11.82v117.09L6.11,264.25c-12.61,11.6-4.4,32.65,12.74,32.65h29.43c8.25,0,14.94,6.69,14.94,14.94v280.16c0,9.45,7.66,17.11,17.11,17.11h436.5c8.42,0,17.25-6.78,17.25-15.24v-282.03c0-8.25,6.69-14.94,14.94-14.94h33.18c17.13,0,25.34-21.04,12.74-32.65Zm-9.24,15.2c-.62,1.59-1.8,2.39-3.5,2.39h-33.18c-16.54,0-30,13.46-30,30v281.22c-.51.48-1.52,1-2.2,1H80.33c-1.13,0-2.06-.92-2.06-2.06v-280.16c0-16.54-13.46-30-30-30h-29.43c-1.7,0-2.88-.8-3.5-2.39-.62-1.59-.3-2.97.96-4.13l95.24-87.66,4.86-4.47V62.72h53.06v71.62l25.25-23.24,103.28-95.06c.89-.82,1.87-.99,2.54-.99s1.65.17,2.54.99l281.68,259.28c1.25,1.15,1.57,2.54.96,4.13Z"/>
      <path class="cls-2" d="m499.69,211.35c-3.06-2.82-7.82-2.62-10.64.44-2.81,3.06-2.62,7.82.44,10.63l40.43,37.22c-21.34,7.85-36.48,28.45-36.48,52.2v256.63H103.86v-54.98c0-4.16-3.37-7.53-7.53-7.53s-7.53,3.37-7.53,7.53v62.51c0,4.16,3.37,7.53,7.53,7.53h404.64c4.16,0,7.53-3.37,7.53-7.53v-264.16c0-21.2,16.56-38.96,37.69-40.43,3-.21,5.58-2.18,6.58-5.02.99-2.84.21-5.99-2.01-8.03l-51.07-47.01Z"/>
    </g>
    <circle class="cls-1" cx="394.11" cy="418.54" r="159.08"/>
    <g>
      <g>
        <ellipse class="cls-1" cx="386.72" cy="416.03" rx="170.56" ry="166.13"/>
        <g class="cls-7">
          <g>
            <polygon class="cls-6" points="202.54 430.05 295.37 391.37 387.08 419.21 478.27 338.96 481.32 342.24 388.2 424.19 295.61 396.08 204.23 434.16 202.54 430.05"/>
            <g>
              <ellipse class="cls-1" cx="295.49" cy="393.73" rx="20.43" ry="19.9"/>
              <path class="cls-6" d="m295.49,415.84c-12.52,0-22.7-9.92-22.7-22.11s10.18-22.11,22.7-22.11,22.7,9.92,22.7,22.11-10.18,22.11-22.7,22.11Zm0-39.79c-10.01,0-18.15,7.93-18.15,17.68s8.14,17.68,18.15,17.68,18.15-7.93,18.15-17.68-8.14-17.68-18.15-17.68Z"/>
            </g>
            <g>
              <ellipse class="cls-1" cx="479.79" cy="340.6" rx="20.43" ry="19.9"/>
              <path class="cls-6" d="m479.79,362.71c-12.52,0-22.7-9.92-22.7-22.11s10.18-22.11,22.7-22.11,22.7,9.92,22.7,22.11-10.18,22.11-22.7,22.11Zm0-39.79c-10.01,0-18.15,7.93-18.15,17.68s8.14,17.68,18.15,17.68,18.15-7.93,18.15-17.68-8.14-17.68-18.15-17.68Z"/>
            </g>
            <ellipse class="cls-1" cx="387.64" cy="417.75" rx="20.43" ry="19.9"/>
            <path class="cls-6" d="m387.64,439.86c-12.52,0-22.7-9.92-22.7-22.11s10.18-22.11,22.7-22.11,22.7,9.92,22.7,22.11-10.18,22.11-22.7,22.11Zm0-39.79c-10.01,0-18.15,7.93-18.15,17.68s8.14,17.68,18.15,17.68,18.15-7.93,18.15-17.68-8.14-17.68-18.15-17.68Z"/>
          </g>
          <rect class="cls-3" x="210.52" y="555.59" width="196.76" height="61.92" transform="translate(-277.65 895.45) rotate(-90)"/>
          <rect class="cls-3" x="313.73" y="509.1" width="165" height="61.92" transform="translate(-143.82 936.28) rotate(-90)"/>
          <rect class="cls-3" x="394.46" y="456.85" width="178.2" height="61.92" transform="translate(-4.25 971.37) rotate(-90)"/>
        </g>
      </g>
      <polygon class="cls-1" points="580.79 578.86 552.98 605.83 491.78 545.94 519.6 518.98 580.79 578.86"/>
      <path class="cls-4" d="m552.95,615.28l-70.87-69.36,37.54-36.39,70.87,69.36-37.54,36.39Zm-51.47-69.31l51.51,50.41,18.09-17.54-51.51-50.41-18.09,17.54Z"/>
      <path class="cls-4" d="m733.53,701.37l-55.51,53.81c-.93.9-2.43.9-3.35,0l-171.93-168.26c-.92-.9-.92-2.36,0-3.26l55.51-53.81c.93-.9,2.43-.9,3.35,0l171.93,168.26c.92.9.92,2.36,0,3.26Z"/>
      <path class="cls-4" d="m386.72,593.27c-.14,0-.28,0-.43,0-11.64-.03-23.33-1.14-34.73-3.32-11.52-2.2-22.86-5.5-33.7-9.81-22.56-8.97-42.78-22.12-60.11-39.07-17.32-16.95-30.73-36.72-39.83-58.73-4.38-10.58-7.71-21.64-9.92-32.87-2.18-11.12-3.28-22.51-3.25-33.85.03-11.34,1.18-22.72,3.41-33.83,2.26-11.22,5.65-22.27,10.08-32.83,9.21-21.98,22.71-41.67,40.11-58.55,17.41-16.87,37.69-29.93,60.3-38.8,10.86-4.26,22.22-7.51,33.75-9.66,11.42-2.13,23.11-3.18,34.75-3.16,11.64.03,23.33,1.14,34.73,3.32,11.52,2.2,22.86,5.5,33.7,9.81,22.56,8.97,42.79,22.12,60.11,39.07,17.32,16.95,30.73,36.72,39.83,58.73,4.38,10.58,7.71,21.64,9.92,32.87,2.18,11.12,3.28,22.51,3.25,33.85-.03,11.34-1.18,22.72-3.41,33.83-2.26,11.22-5.65,22.27-10.08,32.83-9.21,21.98-22.71,41.67-40.11,58.55-17.41,16.87-37.69,29.93-60.3,38.8-10.86,4.26-22.22,7.51-33.75,9.66-11.28,2.1-22.82,3.16-34.32,3.16Zm0-324.75c-38.68,0-77.36,14.29-106.88,42.91-28.68,27.81-44.53,64.83-44.63,104.25-.1,39.42,15.57,76.51,44.12,104.45,28.55,27.94,66.56,43.38,107.03,43.47.12,0,.25,0,.37,0,40.33,0,78.27-15.25,106.87-42.98,28.68-27.81,44.53-64.83,44.63-104.25.1-39.42-15.57-76.51-44.12-104.45-29.56-28.93-68.47-43.4-107.39-43.4Z"/>
      <path class="cls-5" d="m364.79,552.67c-1.09.12-2.23.09-3.37-.12-22.84-4.1-44.57-13.76-62.85-27.93-61.52-47.71-71.73-135.27-22.75-195.2,3.93-4.81,11.12-5.6,16.06-1.78,4.94,3.83,5.75,10.83,1.82,15.64-41.13,50.32-32.56,123.86,19.11,163.92,15.35,11.91,33.6,20.02,52.76,23.46,6.21,1.11,10.31,6.92,9.17,12.96-.93,4.93-5.08,8.51-9.94,9.04Z"/>
    </g>
  </g>
</svg>