<?xml version="1.0" encoding="UTF-8"?>
<svg id="Ebene_2" data-name="Ebene 2" xmlns="http://www.w3.org/2000/svg" xmlns:xlink="http://www.w3.org/1999/xlink" viewBox="0 0 710.61 775.44">
  <defs>
    <style>
      .cls-1 {
        fill: #fff;
      }

      .cls-2 {
        fill: #363636;
      }

      .cls-3 {
        fill: #bce2ec;
      }

      .cls-4 {
        fill: #595857;
      }

      .cls-5 {
        fill: #d3edfb;
        opacity: .59;
      }

      .cls-6 {
        fill: #ee762c;
      }

      .cls-7 {
        clip-path: url(#clippath);
      }
    </style>
    <clipPath id="clippath">
      <ellipse class="cls-1" cx="363.1" cy="435.62" rx="170.56" ry="166.13"/>
    </clipPath>
  </defs>
  <g id="_ŚC__1" data-name="ŚC„[_1">
    <g>
      <g>
        <path class="cls-2" d="m694.31,275.32L412.63,16.04c-.89-.82-1.87-.99-2.54-.99s-1.65.17-2.54.99l-58.65,53.98c110.57,93.79,238.09,205.7,228.54,218.69-3.84,5.22-28.59-7.11-52.02,8.18-4.85,3.16-10.13,7.83-14.95,14.94l-4.88,256.63h-8.12l4.49,15.06,3.14,10.53h121.29c.68,0,1.7-.51,2.2-.99v-281.23c0-16.54,13.46-29.99,30-29.99h33.18c1.7,0,2.88-.81,3.49-2.39.62-1.59.3-2.98-.95-4.13Zm-196.84,293.14h8.12l4.88-256.63c4.82-7.11,10.1-11.78,14.95-14.94,23.43-15.29,48.18-2.96,52.02-8.18,9.55-12.99-117.97-124.9-228.54-218.69-3.88-3.29-7.74-6.56-11.57-9.8l60.02-55.25c3.6-3.32,8.17-4.97,12.74-4.97s9.14,1.65,12.74,4.97l281.67,259.27c12.61,11.61,4.4,32.65-12.73,32.65h-33.18c-8.25,0-14.94,6.69-14.94,14.94v282.03c0,8.47-8.84,15.25-17.26,15.25h-121.58l.29-15.06-3.14-10.53-4.49-15.06Z"/>
        <path class="cls-2" d="m497.47,568.46h105.53v-256.63c0-23.74,15.14-44.34,36.48-52.19l-40.43-37.22c-3.06-2.82-3.25-7.58-.44-10.64,2.82-3.05,7.58-3.25,10.64-.44l51.07,47.01c2.21,2.04,3,5.19,2,8.03-.99,2.84-3.58,4.81-6.58,5.02-21.13,1.47-37.68,19.23-37.68,40.43v264.16c0,4.16-3.37,7.53-7.53,7.53h-108.57l-4.49-15.06Z"/>
      </g>
      <g>
        <path class="cls-2" d="m594.94,284.68L313.27,25.4c-3.6-3.31-8.17-4.97-12.74-4.97s-9.14,1.66-12.74,4.97l-103.28,95.06v-40.54c0-6.53-5.29-11.82-11.82-11.82h-59.53c-6.53,0-11.82,5.29-11.82,11.82v117.09L6.11,284.68c-12.61,11.6-4.4,32.65,12.74,32.65h29.43c8.25,0,14.94,6.69,14.94,14.94v280.16c0,9.45,7.66,17.11,17.11,17.11h436.5c8.42,0,17.25-6.78,17.25-15.24v-282.03c0-8.25,6.69-14.94,14.94-14.94h33.18c17.13,0,25.34-21.04,12.74-32.65Zm-9.24,15.2c-.62,1.59-1.8,2.39-3.5,2.39h-33.18c-16.54,0-30,13.46-30,30v281.22c-.51.48-1.52,1-2.2,1H80.33c-1.13,0-2.06-.92-2.06-2.06v-280.16c0-16.54-13.46-30-30-30h-29.43c-1.7,0-2.88-.8-3.5-2.39-.62-1.59-.3-2.97.96-4.13l95.24-87.66,4.86-4.47v-120.46h53.06v71.62l25.25-23.24,103.28-95.06c.89-.82,1.87-.99,2.54-.99s1.65.17,2.54.99l281.68,259.28c1.25,1.15,1.57,2.54.96,4.13Z"/>
        <path class="cls-2" d="m499.69,231.78c-3.06-2.82-7.82-2.62-10.64.44-2.81,3.06-2.62,7.82.44,10.63l40.43,37.22c-21.34,7.85-36.48,28.45-36.48,52.2v256.63H103.86v-54.98c0-4.16-3.37-7.53-7.53-7.53s-7.53,3.37-7.53,7.53v62.51c0,4.16,3.37,7.53,7.53,7.53h404.64c4.16,0,7.53-3.37,7.53-7.53v-264.16c0-21.2,16.56-38.96,37.69-40.43,3-.21,5.58-2.18,6.58-5.02.99-2.84.21-5.99-2.01-8.03l-51.07-47.01Z"/>
      </g>
      <circle class="cls-1" cx="363.15" cy="434.97" r="159.08"/>
      <g>
        <g>
          <ellipse class="cls-1" cx="363.1" cy="435.62" rx="170.56" ry="166.13"/>
          <g class="cls-7">
            <g>
              <polygon class="cls-6" points="178.92 449.64 271.75 410.96 363.46 438.8 454.65 358.55 457.7 361.84 364.58 443.79 271.99 415.68 180.61 453.76 178.92 449.64"/>
              <g>
                <ellipse class="cls-1" cx="271.87" cy="413.32" rx="20.43" ry="19.9"/>
                <path class="cls-6" d="m271.87,435.43c-12.52,0-22.7-9.92-22.7-22.11s10.18-22.11,22.7-22.11,22.7,9.92,22.7,22.11-10.18,22.11-22.7,22.11Zm0-39.79c-10.01,0-18.15,7.93-18.15,17.68s8.14,17.68,18.15,17.68,18.15-7.93,18.15-17.68-8.14-17.68-18.15-17.68Z"/>
              </g>
              <g>
                <ellipse class="cls-1" cx="456.17" cy="360.19" rx="20.43" ry="19.9"/>
                <path class="cls-6" d="m456.17,382.31c-12.52,0-22.7-9.92-22.7-22.11s10.18-22.11,22.7-22.11,22.7,9.92,22.7,22.11-10.18,22.11-22.7,22.11Zm0-39.79c-10.01,0-18.15,7.93-18.15,17.68s8.14,17.68,18.15,17.68,18.15-7.93,18.15-17.68-8.14-17.68-18.15-17.68Z"/>
              </g>
              <ellipse class="cls-1" cx="364.02" cy="437.34" rx="20.43" ry="19.9"/>
              <path class="cls-6" d="m364.02,459.45c-12.52,0-22.7-9.92-22.7-22.11s10.18-22.11,22.7-22.11,22.7,9.92,22.7,22.11-10.18,22.11-22.7,22.11Zm0-39.79c-10.01,0-18.15,7.93-18.15,17.68s8.14,17.68,18.15,17.68,18.15-7.93,18.15-17.68-8.14-17.68-18.15-17.68Z"/>
            </g>
            <rect class="cls-3" x="186.9" y="575.19" width="196.76" height="61.92" transform="translate(-320.86 891.42) rotate(-90)"/>
            <rect class="cls-3" x="290.11" y="528.69" width="165" height="61.92" transform="translate(-187.04 932.26) rotate(-90)"/>
            <rect class="cls-3" x="370.84" y="476.45" width="178.2" height="61.92" transform="translate(-47.46 967.35) rotate(-90)"/>
          </g>
        </g>
        <polygon class="cls-1" points="557.17 598.46 529.36 625.42 468.16 565.54 495.98 538.57 557.17 598.46"/>
        <path class="cls-4" d="m529.33,634.87l-70.87-69.36,37.54-36.39,70.87,69.36-37.54,36.39Zm-51.47-69.31l51.51,50.41,18.09-17.54-51.51-50.41-18.09,17.54Z"/>
        <path class="cls-4" d="m709.91,720.96l-55.51,53.81c-.93.9-2.43.9-3.35,0l-171.93-168.26c-.92-.9-.92-2.36,0-3.26l55.51-53.81c.93-.9,2.43-.9,3.35,0l171.93,168.26c.92.9.92,2.36,0,3.26Z"/>
        <path class="cls-4" d="m363.1,612.87c-.14,0-.28,0-.43,0-11.64-.03-23.33-1.14-34.73-3.32-11.52-2.2-22.86-5.5-33.7-9.81-22.56-8.97-42.78-22.12-60.11-39.07-17.32-16.95-30.73-36.72-39.83-58.73-4.38-10.58-7.71-21.64-9.92-32.87-2.18-11.12-3.28-22.51-3.25-33.85.03-11.34,1.18-22.72,3.41-33.83,2.26-11.22,5.65-22.27,10.08-32.83,9.21-21.98,22.71-41.67,40.11-58.55,17.41-16.87,37.69-29.93,60.3-38.8,10.86-4.26,22.22-7.51,33.75-9.66,11.42-2.13,23.11-3.18,34.75-3.16,11.64.03,23.33,1.14,34.73,3.32,11.52,2.2,22.86,5.5,33.7,9.81,22.56,8.97,42.79,22.12,60.11,39.07,17.32,16.95,30.73,36.72,39.83,58.73,4.38,10.58,7.71,21.64,9.92,32.87,2.18,11.12,3.28,22.51,3.25,33.85-.03,11.34-1.18,22.72-3.41,33.83-2.26,11.22-5.65,22.27-10.08,32.83-9.21,21.98-22.71,41.67-40.11,58.55-17.41,16.87-37.69,29.93-60.3,38.8-10.86,4.26-22.22,7.51-33.75,9.66-11.28,2.1-22.82,3.16-34.32,3.16Zm0-324.75c-38.68,0-77.36,14.29-106.88,42.91-28.68,27.81-44.53,64.83-44.63,104.25-.1,39.42,15.57,76.51,44.12,104.45,28.55,27.94,66.56,43.38,107.03,43.47.12,0,.25,0,.37,0,40.33,0,78.27-15.25,106.87-42.98,28.68-27.81,44.53-64.83,44.63-104.25.1-39.42-15.57-76.51-44.12-104.45-29.56-28.93-68.47-43.4-107.39-43.4Z"/>
        <path class="cls-5" d="m341.17,572.27c-1.09.12-2.23.09-3.37-.12-22.84-4.1-44.57-13.76-62.85-27.93-61.52-47.71-71.73-135.27-22.75-195.2,3.93-4.81,11.12-5.6,16.06-1.78,4.94,3.83,5.75,10.83,1.82,15.64-41.13,50.32-32.56,123.86,19.11,163.92,15.35,11.91,33.6,20.02,52.76,23.46,6.21,1.11,10.31,6.92,9.17,12.96-.93,4.93-5.08,8.51-9.94,9.04Z"/>
      </g>
    </g>
  </g>
</svg>