<?xml version="1.0" encoding="UTF-8"?>
<svg id="Ebene_2" data-name="Ebene 2" xmlns="http://www.w3.org/2000/svg" viewBox="0 0 353.02 330.02">
  <defs>
    <style>
      .cls-1 {
        fill: #a6bf23;
      }

      .cls-1, .cls-2, .cls-3, .cls-4, .cls-5, .cls-6, .cls-7, .cls-8, .cls-9, .cls-10, .cls-11, .cls-12, .cls-13, .cls-14, .cls-15, .cls-16, .cls-17, .cls-18, .cls-19, .cls-20, .cls-21, .cls-22, .cls-23, .cls-24, .cls-25, .cls-26, .cls-27, .cls-28, .cls-29, .cls-30 {
        stroke-miterlimit: 22.93;
      }

      .cls-1, .cls-2, .cls-5, .cls-8, .cls-9, .cls-16, .cls-17, .cls-22, .cls-23, .cls-26, .cls-27 {
        stroke-width: .28px;
      }

      .cls-1, .cls-31, .cls-6, .cls-9, .cls-32, .cls-13, .cls-33, .cls-14, .cls-34, .cls-15, .cls-35, .cls-36, .cls-18, .cls-37, .cls-22, .cls-38, .cls-23, .cls-24, .cls-26, .cls-39, .cls-40, .cls-29, .cls-41, .cls-42, .cls-43 {
        fill-rule: evenodd;
      }

      .cls-1, .cls-4, .cls-6, .cls-7, .cls-9, .cls-10, .cls-11, .cls-12, .cls-44, .cls-13, .cls-14, .cls-16, .cls-18, .cls-45, .cls-46, .cls-19, .cls-20, .cls-21, .cls-23, .cls-25, .cls-26, .cls-27, .cls-28, .cls-29, .cls-30 {
        stroke: #282828;
      }

      .cls-47 {
        font-size: 5.1px;
      }

      .cls-47, .cls-7, .cls-34, .cls-29 {
        fill: #282828;
      }

      .cls-47, .cls-48 {
        font-family: ArialMT, Arial;
      }

      .cls-2 {
        stroke: #008f44;
      }

      .cls-2, .cls-3, .cls-49, .cls-6, .cls-12, .cls-44, .cls-13, .cls-17, .cls-45, .cls-20, .cls-22, .cls-25, .cls-27, .cls-28, .cls-30 {
        fill: none;
      }

      .cls-3, .cls-49 {
        stroke: #0097da;
      }

      .cls-3, .cls-45, .cls-21, .cls-28, .cls-30 {
        stroke-width: 2px;
      }

      .cls-31 {
        fill: #de6023;
      }

      .cls-4, .cls-5, .cls-8, .cls-21 {
        fill: #0097da;
      }

      .cls-4, .cls-6, .cls-7, .cls-10, .cls-12, .cls-14, .cls-18, .cls-19, .cls-29 {
        stroke-width: .57px;
      }

      .cls-50 {
        fill: #9c928d;
      }

      .cls-5, .cls-8, .cls-17, .cls-22 {
        stroke: #a4477e;
      }

      .cls-49, .cls-44, .cls-45, .cls-46 {
        stroke-miterlimit: 10;
      }

      .cls-8, .cls-16, .cls-23, .cls-24 {
        opacity: .8;
      }

      .cls-9 {
        fill: #c68d60;
      }

      .cls-10, .cls-16, .cls-38, .cls-23, .cls-24 {
        fill: #a33384;
      }

      .cls-32, .cls-11, .cls-51 {
        fill: #edeae9;
      }

      .cls-11 {
        stroke-width: .57px;
      }

      .cls-52 {
        fill: #e2e3e7;
      }

      .cls-13, .cls-20 {
        stroke-width: .75px;
      }

      .cls-33 {
        fill: #e8eaee;
      }

      .cls-14, .cls-35, .cls-48 {
        fill: #6d6c6c;
      }

      .cls-53, .cls-46, .cls-19, .cls-42 {
        fill: #eff1f4;
      }

      .cls-15, .cls-24 {
        stroke: #1c191e;
        stroke-width: .5px;
      }

      .cls-15, .cls-26 {
        fill: #97ceed;
      }

      .cls-36 {
        fill: #0163a9;
      }

      .cls-18 {
        fill: #a3a0a0;
      }

      .cls-37, .cls-54 {
        fill: #1c191e;
      }

      .cls-46 {
        stroke-width: .33px;
      }

      .cls-21, .cls-25, .cls-28 {
        stroke-dasharray: 0 0 .57 .57;
      }

      .cls-25 {
        stroke-width: 3px;
      }

      .cls-39 {
        fill: #1e9e46;
      }

      .cls-48 {
        font-size: 3.24px;
      }

      .cls-40 {
        fill: #c61f23;
      }

      .cls-41 {
        fill: #f0f0f0;
      }

      .cls-43 {
        fill: #858d95;
      }
    </style>
  </defs>
  <g id="WärmeAus">
    <g>
      <rect class="cls-11" x=".29" y="262.09" width="352.45" height="67.64"/>
      <path class="cls-14" d="M314.21,262.09h-38.93V32.3h37.72c.66,0,1.21,.54,1.21,1.21v228.58Z"/>
      <path class="cls-18" d="M86.93,262.09h188.35V6.12c0-3.21-2.63-5.83-5.83-5.83H92.76c-3.21,0-5.83,2.63-5.83,5.83v255.98Z"/>
      <path class="cls-14" d="M48,262.09h38.93V32.3H49.21c-.66,0-1.21,.54-1.21,1.21v228.58Z"/>
      <rect class="cls-51" x="221.68" y="75.81" width="25.74" height="26.06" rx="3.56" ry="3.56"/>
      <rect class="cls-51" x="167.61" y="75.81" width="25.74" height="26.06" rx="3.56" ry="3.56"/>
      <rect class="cls-51" x="115.81" y="75.81" width="25.74" height="26.06" rx="3.56" ry="3.56"/>
      <rect class="cls-51" x="221.68" y="31.86" width="25.74" height="26.06" rx="3.56" ry="3.56"/>
      <rect class="cls-51" x="167.61" y="31.86" width="25.74" height="26.06" rx="3.56" ry="3.56"/>
      <rect class="cls-51" x="115.81" y="31.86" width="25.74" height="26.06" rx="3.56" ry="3.56"/>
      <rect class="cls-51" x="221.68" y="120.08" width="25.74" height="26.06" rx="3.56" ry="3.56"/>
      <rect class="cls-51" x="167.61" y="120.08" width="25.74" height="26.06" rx="3.56" ry="3.56"/>
      <rect class="cls-51" x="115.81" y="120.08" width="25.74" height="26.06" rx="3.56" ry="3.56"/>
      <rect class="cls-51" x="166.04" y="215.95" width="30.76" height="46.15"/>
      <rect class="cls-51" x="112.67" y="215.95" width="30.76" height="46.15"/>
      <rect class="cls-52" x="101.61" y="206.37" width="159.63" height="6.44"/>
      <rect class="cls-50" x="102.94" y="212.81" width="156.96" height="3.14"/>
      <rect class="cls-51" x="221.68" y="163.58" width="25.74" height="26.06" rx="3.56" ry="3.56"/>
      <rect class="cls-51" x="167.61" y="163.58" width="25.74" height="26.06" rx="3.56" ry="3.56"/>
      <rect class="cls-51" x="115.81" y="163.58" width="25.74" height="26.06" rx="3.56" ry="3.56"/>
      <g>
        <path class="cls-37" d="M181.58,79.63c.15,.32,.1,.76,.28,1.15,.19,.43,.44,.55,.66,.83,.43,.56,.8,1.37,.58,2.33-.31,1.4-1.84,2.6-3.59,1.92-1.27-.5-2.31-2.22-1.33-3.85,.36-.6,.99-.91,1.1-1.82,.09-.74,.11-.63,.87-.62,.42,0,1.1-.04,1.43,.06Z"/>
        <path class="cls-41" d="M179.66,79.92h1.65c.17,.89,.21,1.12,.71,1.68,.37,.41,.75,.77,.8,1.6,.09,1.38-1.01,2.5-2.34,2.5-1.32,0-2.4-1.11-2.32-2.49,.02-.33,.12-.65,.25-.91,.19-.39,.32-.44,.55-.68,.4-.43,.58-.91,.7-1.7Z"/>
        <path class="cls-37" d="M178.77,83.46c.59,.02,.09,.42,.73,1.04,.6,.58,1.12,.12,1.11,.65-.7,.42-2.1-.88-1.84-1.7Z"/>
        <path class="cls-37" d="M179.41,79.16c.24-.16,1.98-.13,2.16,0,0,.29-.06,.25-.37,.26-.7,0-1.89,.15-1.78-.27Z"/>
        <path class="cls-37" d="M181,78.55c.4,0,.47-.07,.46,.31-.18,.04-1.72,.08-1.86,0-.51-.28,.33-.31,1.4-.32Z"/>
        <path class="cls-37" d="M181.19,78.39h-1.42c.17-.47,1.08-.31,1.19-.28,.22,.07,.2,.11,.23,.28Z"/>
      </g>
      <g>
        <path class="cls-37" d="M181.71,124.46c.15,.32,.1,.76,.28,1.15,.19,.43,.44,.55,.66,.83,.43,.56,.8,1.37,.58,2.33-.31,1.4-1.84,2.6-3.59,1.92-1.27-.5-2.31-2.22-1.33-3.85,.36-.6,.99-.91,1.1-1.82,.09-.74,.11-.63,.87-.62,.42,0,1.1-.04,1.43,.06Z"/>
        <path class="cls-41" d="M179.79,124.75h1.65c.17,.89,.21,1.12,.71,1.68,.37,.41,.75,.77,.8,1.6,.09,1.38-1.01,2.5-2.34,2.5-1.32,0-2.4-1.11-2.32-2.49,.02-.33,.12-.65,.25-.91,.19-.39,.32-.44,.55-.68,.4-.43,.58-.91,.7-1.7Z"/>
        <path class="cls-37" d="M178.9,128.29c.59,.02,.09,.42,.73,1.04,.6,.58,1.12,.12,1.11,.65-.7,.42-2.1-.88-1.84-1.7Z"/>
        <path class="cls-37" d="M179.55,124c.24-.16,1.98-.13,2.16,0,0,.29-.06,.25-.37,.26-.7,0-1.89,.15-1.78-.27Z"/>
        <path class="cls-37" d="M181.13,123.38c.4,0,.47-.07,.46,.31-.18,.04-1.72,.08-1.86,0-.51-.28,.33-.31,1.4-.32Z"/>
        <path class="cls-37" d="M181.33,123.22h-1.42c.17-.47,1.08-.31,1.19-.28,.22,.07,.2,.11,.23,.28Z"/>
      </g>
      <g>
        <path class="cls-37" d="M129.75,166.3c.15,.32,.1,.76,.28,1.15,.19,.43,.44,.55,.66,.83,.43,.56,.8,1.37,.58,2.33-.31,1.4-1.84,2.6-3.59,1.92-1.27-.5-2.31-2.22-1.33-3.85,.36-.6,.99-.91,1.1-1.82,.09-.74,.11-.63,.87-.62,.42,0,1.1-.04,1.43,.06Z"/>
        <path class="cls-41" d="M127.83,166.59h1.65c.17,.89,.21,1.12,.71,1.68,.37,.41,.75,.77,.8,1.6,.09,1.38-1.01,2.5-2.34,2.5-1.32,0-2.4-1.11-2.32-2.49,.02-.33,.12-.65,.25-.91,.19-.39,.32-.44,.55-.68,.4-.43,.58-.91,.7-1.7Z"/>
        <path class="cls-37" d="M126.94,170.13c.59,.02,.09,.42,.73,1.04,.6,.58,1.12,.12,1.11,.65-.7,.42-2.1-.88-1.84-1.7Z"/>
        <path class="cls-37" d="M127.58,165.83c.24-.16,1.98-.13,2.16,0,0,.29-.06,.25-.37,.26-.7,0-1.89,.15-1.78-.27Z"/>
        <path class="cls-37" d="M129.16,165.22c.4,0,.47-.07,.46,.31-.18,.04-1.72,.08-1.86,0-.51-.28,.33-.31,1.4-.32Z"/>
        <path class="cls-37" d="M129.36,165.06h-1.42c.17-.47,1.08-.31,1.19-.28,.22,.07,.2,.11,.23,.28Z"/>
      </g>
      <g>
        <path class="cls-37" d="M235.78,166.3c.15,.32,.1,.76,.28,1.15,.19,.43,.44,.55,.66,.83,.43,.56,.8,1.37,.58,2.33-.31,1.4-1.84,2.6-3.59,1.92-1.27-.5-2.31-2.22-1.33-3.85,.36-.6,.99-.91,1.1-1.82,.09-.74,.11-.63,.87-.62,.42,0,1.1-.04,1.43,.06Z"/>
        <path class="cls-41" d="M233.85,166.59h1.65c.17,.89,.21,1.12,.71,1.68,.37,.41,.75,.77,.8,1.6,.09,1.38-1.01,2.5-2.34,2.5-1.32,0-2.4-1.11-2.32-2.49,.02-.33,.12-.65,.25-.91,.19-.39,.32-.44,.55-.68,.4-.43,.58-.91,.7-1.7Z"/>
        <path class="cls-37" d="M232.97,170.13c.59,.02,.09,.42,.73,1.04,.6,.58,1.12,.12,1.11,.65-.7,.42-2.1-.88-1.84-1.7Z"/>
        <path class="cls-37" d="M233.61,165.83c.24-.16,1.98-.13,2.16,0,0,.29-.06,.25-.37,.26-.7,0-1.89,.15-1.78-.27Z"/>
        <path class="cls-37" d="M235.19,165.22c.4,0,.47-.07,.46,.31-.18,.04-1.72,.08-1.86,0-.51-.28,.33-.31,1.4-.32Z"/>
        <path class="cls-37" d="M235.39,165.06h-1.42c.17-.47,1.08-.31,1.19-.28,.22,.07,.2,.11,.23,.28Z"/>
      </g>
      <polygon class="cls-26" points="271.16 31.86 271.16 269.36 86.19 269.36 86.19 303.14 59.16 303.14 59.16 298.61 81.66 298.61 81.66 264.83 266.63 264.83 266.63 31.86 271.16 31.86"/>
      <rect class="cls-16" x="93.31" y="31.86" width="4.53" height="232.97"/>
      <polygon class="cls-23" points="97.84 269.36 97.84 319.21 59.16 319.21 59.16 314.68 93.31 314.68 93.31 269.36 97.84 269.36"/>
      <polygon class="cls-1" points="26.96 299.43 26.96 303.96 14.01 303.96 14.01 262.09 18.54 262.09 18.54 299.43 26.96 299.43"/>
      <polygon class="cls-9" points="26.96 314.68 26.96 319.21 5.65 319.21 5.65 262.09 10.17 262.09 10.17 314.68 26.96 314.68"/>
      <path class="cls-15" d="M260.71,82.5v-.39c.38-.59,.26-.2,.78,.37,.35,.39,.69,.26,1.03-.03,.42-.35,1.21-1.39,1.94-.62,.04-.19,.04-.86,.02-1.06-.02-.25-.24-.48-.41-.56-.5-.24-.94,.38-1.18,.6-1.1,.99-1.61,.38-2.18-.66v-.37c.09-.16,.17-.44,.39-.2,.12,.13,.18,.31,.34,.49,.75,.86,1.19-.26,1.9-.69,.57-.34,.82-.07,1.14,.11,0-.72,.16-1.39-.43-1.63-.47-.2-.96,.41-1.17,.61-1.09,1.04-1.56,.36-2.17-.66v-.39c.12-.2,.21-.42,.41-.14,.23,.31,.56,1.19,1.38,.49,.3-.26,.48-.53,.86-.75,.56-.32,.7-.1,1.11,.11,.02-.39,0-.84,0-1.24,0-.54-.06-.63,.23-.93h.24c.55,.47,1.59,.63,1.66,1.15,.03,.24,0,6.38,0,7.45,0,.94-.18,.79-.83,1.14-.45,.24-1.03,.68-1.25,.28-.13-.24-.04-1.65-.06-2.07-.18-.13-.21-.29-.42-.38-.55-.23-1.03,.53-1.5,.88-.99,.74-1.47-.35-1.85-.92Z"/>
      <path class="cls-15" d="M260.71,126v-.39c.38-.59,.26-.2,.78,.37,.35,.39,.69,.26,1.03-.03,.42-.35,1.21-1.39,1.94-.62,.04-.19,.04-.86,.02-1.06-.02-.25-.24-.48-.41-.56-.5-.24-.94,.38-1.18,.6-1.1,.99-1.61,.38-2.18-.66v-.37c.09-.16,.17-.44,.39-.2,.12,.13,.18,.31,.34,.49,.75,.86,1.19-.26,1.9-.69,.57-.34,.82-.07,1.14,.11,0-.72,.16-1.39-.43-1.63-.47-.2-.96,.41-1.17,.61-1.09,1.04-1.56,.36-2.17-.66v-.39c.12-.2,.21-.42,.41-.14,.23,.31,.56,1.19,1.38,.49,.3-.26,.48-.53,.86-.75,.56-.32,.7-.1,1.11,.11,.02-.39,0-.84,0-1.24,0-.54-.06-.63,.23-.93h.24c.55,.47,1.59,.63,1.66,1.15,.03,.24,0,6.38,0,7.45,0,.94-.18,.79-.83,1.14-.45,.24-1.03,.68-1.25,.28-.13-.24-.04-1.65-.06-2.07-.18-.13-.21-.29-.42-.38-.55-.23-1.03,.53-1.5,.88-.99,.74-1.47-.35-1.85-.92Z"/>
      <path class="cls-15" d="M260.71,170.02v-.39c.38-.59,.26-.2,.78,.37,.35,.39,.69,.26,1.03-.03,.42-.35,1.21-1.39,1.94-.62,.04-.19,.04-.86,.02-1.06-.02-.25-.24-.48-.41-.56-.5-.24-.94,.38-1.18,.6-1.1,.99-1.61,.38-2.18-.66v-.37c.09-.16,.17-.44,.39-.2,.12,.13,.18,.31,.34,.49,.75,.86,1.19-.26,1.9-.69,.57-.34,.82-.07,1.14,.11,0-.72,.16-1.39-.43-1.63-.47-.2-.96,.41-1.17,.61-1.09,1.04-1.56,.36-2.17-.66v-.39c.12-.2,.21-.42,.41-.14,.23,.31,.56,1.19,1.38,.49,.3-.26,.48-.53,.86-.75,.56-.32,.7-.1,1.11,.11,.02-.39,0-.84,0-1.24,0-.54-.06-.63,.23-.93h.24c.55,.47,1.59,.63,1.66,1.15,.03,.24,0,6.38,0,7.45,0,.94-.18,.79-.83,1.14-.45,.24-1.03,.68-1.25,.28-.13-.24-.04-1.65-.06-2.07-.18-.13-.21-.29-.42-.38-.55-.23-1.03,.53-1.5,.88-.99,.74-1.47-.35-1.85-.92Z"/>
      <path class="cls-15" d="M260.71,223.49v-.39c.38-.59,.26-.2,.78,.37,.35,.39,.69,.26,1.03-.03,.42-.35,1.21-1.39,1.94-.62,.04-.19,.04-.86,.02-1.06-.02-.25-.24-.48-.41-.56-.5-.24-.94,.38-1.18,.6-1.1,.99-1.61,.38-2.18-.66v-.37c.09-.16,.17-.44,.39-.2,.12,.13,.18,.31,.34,.49,.75,.86,1.19-.26,1.9-.69,.57-.34,.82-.07,1.14,.11,0-.72,.16-1.39-.43-1.63-.47-.2-.96,.41-1.17,.61-1.09,1.04-1.56,.36-2.17-.66v-.39c.12-.2,.21-.42,.41-.14,.23,.31,.56,1.19,1.38,.49,.3-.26,.48-.53,.86-.75,.56-.32,.7-.1,1.11,.11,.02-.39,0-.84,0-1.24,0-.54-.06-.63,.23-.93h.24c.55,.47,1.59,.63,1.66,1.15,.03,.24,0,6.38,0,7.45,0,.94-.18,.79-.83,1.14-.45,.24-1.03,.68-1.25,.28-.13-.24-.04-1.65-.06-2.07-.18-.13-.21-.29-.42-.38-.55-.23-1.03,.53-1.5,.88-.99,.74-1.47-.35-1.85-.92Z"/>
      <path class="cls-24" d="M93.98,169.91v-.39c.38-.59,.26-.2,.78,.37,.35,.39,.69,.26,1.03-.03,.42-.35,1.21-1.39,1.94-.62,.04-.19,.04-.86,.02-1.06-.02-.25-.24-.48-.41-.56-.5-.24-.94,.38-1.18,.6-1.1,.99-1.61,.38-2.18-.66v-.37c.09-.16,.17-.44,.39-.2,.12,.13,.18,.31,.34,.49,.75,.86,1.19-.26,1.9-.69,.57-.34,.82-.07,1.14,.11,0-.72,.16-1.39-.43-1.63-.47-.2-.96,.41-1.17,.61-1.09,1.04-1.56,.36-2.17-.66v-.39c.12-.2,.21-.42,.41-.14,.23,.31,.56,1.19,1.38,.49,.3-.26,.48-.53,.86-.75,.56-.32,.7-.1,1.11,.11,.02-.39,0-.84,0-1.24,0-.54-.06-.63,.23-.93h.24c.55,.47,1.59,.63,1.66,1.15,.03,.24,0,6.38,0,7.45,0,.94-.18,.79-.83,1.14-.45,.24-1.03,.68-1.25,.28-.13-.24-.04-1.65-.06-2.07-.18-.13-.21-.29-.42-.38-.55-.23-1.03,.53-1.5,.88-.99,.74-1.47-.35-1.85-.92Z"/>
      <path class="cls-24" d="M93.98,223.41v-.39c.38-.59,.26-.2,.78,.37,.35,.39,.69,.26,1.03-.03,.42-.35,1.21-1.39,1.94-.62,.04-.19,.04-.86,.02-1.06-.02-.25-.24-.48-.41-.56-.5-.24-.94,.38-1.18,.6-1.1,.99-1.61,.38-2.18-.66v-.37c.09-.16,.17-.44,.39-.2,.12,.13,.18,.31,.34,.49,.75,.86,1.19-.26,1.9-.69,.57-.34,.82-.07,1.14,.11,0-.72,.16-1.39-.43-1.63-.47-.2-.96,.41-1.17,.61-1.09,1.04-1.56,.36-2.17-.66v-.39c.12-.2,.21-.42,.41-.14,.23,.31,.56,1.19,1.38,.49,.3-.26,.48-.53,.86-.75,.56-.32,.7-.1,1.11,.11,.02-.39,0-.84,0-1.24,0-.54-.06-.63,.23-.93h.24c.55,.47,1.59,.63,1.66,1.15,.03,.24,0,6.38,0,7.45,0,.94-.18,.79-.83,1.14-.45,.24-1.03,.68-1.25,.28-.13-.24-.04-1.65-.06-2.07-.18-.13-.21-.29-.42-.38-.55-.23-1.03,.53-1.5,.88-.99,.74-1.47-.35-1.85-.92Z"/>
      <path class="cls-24" d="M94.09,39.84v-.39c.38-.59,.26-.2,.78,.37,.35,.39,.69,.26,1.03-.03,.42-.35,1.21-1.39,1.94-.62,.04-.19,.04-.86,.02-1.06-.02-.25-.24-.48-.41-.56-.5-.24-.94,.38-1.18,.6-1.1,.99-1.61,.38-2.18-.66v-.37c.09-.16,.17-.44,.39-.2,.12,.13,.18,.31,.34,.49,.75,.86,1.19-.26,1.9-.69,.57-.34,.82-.07,1.14,.11,0-.72,.16-1.39-.43-1.63-.47-.2-.96,.41-1.17,.61-1.09,1.04-1.56,.36-2.17-.66v-.39c.12-.2,.21-.42,.41-.14,.23,.31,.56,1.19,1.38,.49,.3-.26,.48-.53,.86-.75,.56-.32,.7-.1,1.11,.11,.02-.39,0-.84,0-1.24,0-.54-.06-.63,.23-.93h.24c.55,.47,1.59,.63,1.66,1.15,.03,.24,0,6.38,0,7.45,0,.94-.18,.79-.83,1.14-.45,.24-1.03,.68-1.25,.28-.13-.24-.04-1.65-.06-2.07-.18-.13-.21-.29-.42-.38-.55-.23-1.03,.53-1.5,.88-.99,.74-1.47-.35-1.85-.92Z"/>
      <path class="cls-24" d="M93.98,82.17v-.39c.38-.59,.26-.2,.78,.37,.35,.39,.69,.26,1.03-.03,.42-.35,1.21-1.39,1.94-.62,.04-.19,.04-.86,.02-1.06-.02-.25-.24-.48-.41-.56-.5-.24-.94,.38-1.18,.6-1.1,.99-1.61,.38-2.18-.66v-.37c.09-.16,.17-.44,.39-.2,.12,.13,.18,.31,.34,.49,.75,.86,1.19-.26,1.9-.69,.57-.34,.82-.07,1.14,.11,0-.72,.16-1.39-.43-1.63-.47-.2-.96,.41-1.17,.61-1.09,1.04-1.56,.36-2.17-.66v-.39c.12-.2,.21-.42,.41-.14,.23,.31,.56,1.19,1.38,.49,.3-.26,.48-.53,.86-.75,.56-.32,.7-.1,1.11,.11,.02-.39,0-.84,0-1.24,0-.54-.06-.63,.23-.93h.24c.55,.47,1.59,.63,1.66,1.15,.03,.24,0,6.38,0,7.45,0,.94-.18,.79-.83,1.14-.45,.24-1.03,.68-1.25,.28-.13-.24-.04-1.65-.06-2.07-.18-.13-.21-.29-.42-.38-.55-.23-1.03,.53-1.5,.88-.99,.74-1.47-.35-1.85-.92Z"/>
      <path class="cls-24" d="M93.98,126.43v-.39c.38-.59,.26-.2,.78,.37,.35,.39,.69,.26,1.03-.03,.42-.35,1.21-1.39,1.94-.62,.04-.19,.04-.86,.02-1.06-.02-.25-.24-.48-.41-.56-.5-.24-.94,.38-1.18,.6-1.1,.99-1.61,.38-2.18-.66v-.37c.09-.16,.17-.44,.39-.2,.12,.13,.18,.31,.34,.49,.75,.86,1.19-.26,1.9-.69,.57-.34,.82-.07,1.14,.11,0-.72,.16-1.39-.43-1.63-.47-.2-.96,.41-1.17,.61-1.09,1.04-1.56,.36-2.17-.66v-.39c.12-.2,.21-.42,.41-.14,.23,.31,.56,1.19,1.38,.49,.3-.26,.48-.53,.86-.75,.56-.32,.7-.1,1.11,.11,.02-.39,0-.84,0-1.24,0-.54-.06-.63,.23-.93h.24c.55,.47,1.59,.63,1.66,1.15,.03,.24,0,6.38,0,7.45,0,.94-.18,.79-.83,1.14-.45,.24-1.03,.68-1.25,.28-.13-.24-.04-1.65-.06-2.07-.18-.13-.21-.29-.42-.38-.55-.23-1.03,.53-1.5,.88-.99,.74-1.47-.35-1.85-.92Z"/>
      <rect class="cls-3" x="26.96" y="294.13" width="31.94" height="30.26"/>
      <path class="cls-32" d="M68.73,67.65h18.2v26.06h-18.2c-1.61,0-2.92-1.31-2.92-2.92v-20.22c0-1.61,1.31-2.92,2.92-2.92Z"/>
      <path class="cls-32" d="M68.73,111.6h18.2v26.06h-18.2c-1.61,0-2.92-1.31-2.92-2.92v-20.22c0-1.61,1.31-2.92,2.92-2.92Z"/>
      <path class="cls-32" d="M68.73,155.86h18.2v26.06h-18.2c-1.61,0-2.92-1.31-2.92-2.92v-20.22c0-1.61,1.31-2.92,2.92-2.92Z"/>
      <path class="cls-32" d="M293.48,199.36h-18.2v26.06h18.2c1.61,0,2.92-1.31,2.92-2.92v-20.22c0-1.61-1.31-2.92-2.92-2.92Z"/>
      <path class="cls-32" d="M68.73,199.36h18.2v26.06h-18.2c-1.61,0-2.92-1.31-2.92-2.92v-20.22c0-1.61,1.31-2.92,2.92-2.92Z"/>
      <rect class="cls-51" x="219.4" y="215.95" width="30.76" height="46.15"/>
      <rect class="cls-54" x="319.74" y="292.83" width="27.86" height="27.86" rx=".87" ry=".87"/>
      <rect class="cls-53" x="320.44" y="293.53" width="26.47" height="26.47"/>
      <path class="cls-37" d="M344.23,297.64c2.62,.86,1.25,4.92-1.44,3.93-2.39-.88-1.32-4.83,1.44-3.93Z"/>
      <path class="cls-37" d="M344.35,312.13c2.71,1.25,.78,4.89-1.64,3.8-2.49-1.12-.83-4.95,1.64-3.8Z"/>
      <path class="cls-37" d="M344.1,304.84c.6,.2,.93,.34,1.27,.92,.31,.54,.36,1.14,.14,1.78-.32,.91-1.45,1.7-2.78,1.21-2.26-.84-1.16-4.77,1.36-3.91Z"/>
      <path class="cls-42" d="M344.14,298.41c.41,.2,.56,.07,.75,.75,.41,1.49-1.08,2.18-2.05,1.67-1.36-.71-.47-3.29,1.31-2.42Z"/>
      <path class="cls-42" d="M343.97,305.52c2.03,.84,.67,3.35-1.05,2.54-1.39-.66-.63-3.24,1.05-2.54Z"/>
      <path class="cls-42" d="M344.19,312.82c1.72,.78,.33,3.28-1.32,2.43-1.39-.72-.54-3.28,1.32-2.43Z"/>
      <path class="cls-34" d="M331.41,301.93l.09,1.22,.79,.35c.63-.39,.25-.48,.92-.74,.54,.35,.67,.71,1.28,1.12-.14,.54-.44,.7-.73,1.08l.28,.73,1.27,.13-.02,1.84c-1.16,.22-1.26-.27-1.54,.96,.26,.34,.48,.42,.74,.73-.11,.54-.8,1.11-1.18,1.38-.43-.13-.67-.44-1-.71l-.79,.27-.1,1.25c-.89,.09-.88,.06-1.8,.03l-.15-1.28-.78-.27c-.36,.27-.55,.58-1,.72-.42-.28-1.09-.8-1.19-1.4,.19-.23,.52-.48,.74-.73-.3-1.2-.41-.73-1.52-.94-.12-.98-.09-.83-.06-1.84l1.28-.11,.3-.74-.75-.89,1.26-1.35c.67,.31,.43,.43,.94,.75l.78-.29,.1-1.2,1.86-.05Z"/>
      <path class="cls-33" d="M330.96,303.58c.63,.16,.9,.46,1.61,.49l.61-.63,.62,.6c-.32,.46-.35,.43-.67,.8l.56,1.43c.46,.02,.72-.03,1.08,.12l.03,.82-1.02,.02c-.28,.37-.55,.94-.64,1.49l.65,.76c-.3,.44-.24,.39-.6,.58-1.22-.66-.14-1-2.23-.08l-.05,1.01-.89,.05-.05-1.02-1.44-.63c-.41,.39-.38,.54-.98,.69-.16-.25-.26-.31-.43-.56l.67-.78c-.37-1.89-.93-1.51-1.67-1.52v-.82c.39-.15,.64-.1,1.11-.13l.58-1.42c-.34-.38-.46-.41-.69-.77l.59-.66,.65,.62c.67-.02,1-.31,1.6-.48l.06-1.09,.82-.03,.1,1.12Z"/>
      <path class="cls-34" d="M331.17,304.85c.72,.26,.85,.23,1.18,.96,.76,1.66-.74,3.54-2.62,2.88-2.37-.83-1.35-4.87,1.45-3.85Z"/>
      <path class="cls-38" d="M324.77,299.64c1.05,0,3.13-.19,3.96,.09,.09,.26,.14,1.51,.1,1.89-.09,.71,.08,.35-.29,.48-.46,0-.24-.91-.26-1.92h-3.53c-.38,1.39-2.28,1.11-2.3-.26-.02-1.34,1.81-1.74,2.32-.28Z"/>
      <path class="cls-33" d="M331.01,305.3c1.73,.65,1.04,3.53-1.06,2.91-1.88-.56-.94-3.66,1.06-2.91Z"/>
      <path class="cls-40" d="M337.6,301.04c.02,4.37,.36,4.04-1.29,4.05-.14,0-.56,.02-.66,0-.74-.08-.34,.09-.51-.26,.07-.16-.09-.29,.77-.29,.39,0,.75,.02,1.14,0l.02-3.49c-1.44-.51-1.09-2.32,.27-2.31,1.38,0,1.65,1.84,.26,2.3Z"/>
      <path class="cls-40" d="M332.72,313.32h3.41c1.63-2.39,3.22,.48,1.78,1.3-1.04,.59-1.65-.55-1.65-.55-.42-.4-2.04-.21-3.33-.21-.78,0-.91,.26-.82-1.78,.04-.85-.1-.5,.3-.68,.5,.28,.09,.9,.3,1.92Z"/>
      <path class="cls-31" d="M325.81,308.72c-.25,.42-.73,.17-1.94,.23v3.27c.24,.6,.93,.55,.9,1.42-.05,1.49-2.29,1.45-2.33,0-.02-.85,.66-.83,.9-1.42v-3.71c.34-.11,1.59-.18,1.96-.12,.88,.12,.23-.11,.5,.34Z"/>
      <path class="cls-31" d="M336.82,308.93c-1.05,0-1.45,.18-1.69-.21,.29-.83,1.2-.06,1.82-.33,.39-.41,.42-.91,1.29-.88,1.43,.06,1.55,2.27,0,2.32-1.05,.03-.86-.63-1.41-.9Z"/>
      <path class="cls-31" d="M332.68,300.3c-.03,.95,.19,1.78-.26,1.79-.5,.01-.26-.77-.29-1.79-.41-.38-.91-.53-.89-1.29,.04-1.43,2.15-1.48,2.32-.11,.1,.8-.45,1-.88,1.4Z"/>
      <path class="cls-40" d="M324.13,304.56c1.44,0,1.49-.21,1.68,.28-.17,.36,.05,.24-.63,.26-.31,.01-.73-.02-1.05-.02-.57,.26-.56,.95-1.42,.9-1.51-.09-1.44-2.29,0-2.33,.91-.03,.83,.65,1.42,.9Z"/>
      <path class="cls-38" d="M328.81,313.29c1.58,.61,.92,2.32-.27,2.32-1.39,0-1.64-1.89-.25-2.29v-1.6c.12-.36-.09-.14,.24-.31,.36,.17,.13-.06,.25,.31l.02,1.57Z"/>
      <path class="cls-33" d="M323.91,299.34c.72,.38,.28,1.54-.61,1.16-.69-.3-.22-1.59,.61-1.16Z"/>
      <path class="cls-33" d="M337.62,299.35c.75,.4,.25,1.52-.57,1.13-.75-.35-.21-1.55,.57-1.13Z"/>
      <path class="cls-33" d="M332.04,299.63c-.58-.79-.04-1.54,.72-1.11,.48,.28,.48,1.34-.72,1.11Z"/>
      <path class="cls-33" d="M329.1,313.97l.08,.71c-.74,.76-1.43,.44-1.19-.69,.31-.14,.78-.26,1.11-.02Z"/>
      <path class="cls-33" d="M322.21,305.22c-.32-1.26,.86-1.22,1.11-.72,.36,.73-.36,1.21-1.11,.72Z"/>
      <path class="cls-33" d="M338.7,308.15l.15,.69c-.71,.9-1.51,.34-1.18-.7,.29-.08,.75-.18,1.02,0Z"/>
      <path class="cls-33" d="M337.7,313.15c.76,.59-.15,1.33-.71,.99-.65-.4-.09-1.62,.71-.99Z"/>
      <path class="cls-33" d="M324.02,314.15l-.81,.05c-.97-1.61,1.79-1.55,.81-.05Z"/>
      <path class="cls-32" d="M293.48,67.65h-18.2v26.06h18.2c1.61,0,2.92-1.31,2.92-2.92v-20.22c0-1.61-1.31-2.92-2.92-2.92Z"/>
      <path class="cls-32" d="M293.48,111.6h-18.2v26.06h18.2c1.61,0,2.92-1.31,2.92-2.92v-20.22c0-1.61-1.31-2.92-2.92-2.92Z"/>
      <path class="cls-32" d="M293.48,155.86h-18.2v26.06h18.2c1.61,0,2.92-1.31,2.92-2.92v-20.22c0-1.61-1.31-2.92-2.92-2.92Z"/>
      <path class="cls-37" d="M181.82,166.17c.15,.32,.1,.76,.28,1.15,.19,.43,.44,.55,.66,.83,.43,.56,.8,1.37,.58,2.33-.31,1.4-1.84,2.6-3.59,1.92-1.27-.5-2.31-2.22-1.33-3.85,.36-.6,.99-.91,1.1-1.82,.09-.74,.11-.63,.87-.62,.42,0,1.1-.04,1.43,.06Z"/>
      <path class="cls-42" d="M179.89,166.46h1.65c.17,.89,.21,1.12,.71,1.68,.37,.41,.75,.77,.8,1.6,.09,1.38-1.01,2.5-2.34,2.5-1.33,0-2.4-1.11-2.32-2.49,.02-.33,.12-.65,.25-.91,.19-.39,.32-.44,.55-.68,.4-.43,.58-.91,.7-1.7Z"/>
      <path class="cls-37" d="M179.01,170c.59,.02,.09,.42,.73,1.04,.6,.58,1.12,.12,1.11,.65-.7,.42-2.1-.88-1.84-1.7Z"/>
      <path class="cls-37" d="M179.65,165.7c.24-.16,1.98-.13,2.16,0,0,.29-.06,.25-.37,.26-.7,0-1.89,.15-1.78-.27Z"/>
      <path class="cls-37" d="M181.23,165.09c.4,0,.47-.07,.46,.31-.18,.04-1.72,.08-1.86,0-.51-.28,.33-.31,1.4-.32Z"/>
      <path class="cls-37" d="M181.43,164.93h-1.42c.17-.47,1.08-.31,1.19-.28,.22,.07,.2,.11,.23,.28Z"/>
      <path class="cls-37" d="M235.27,164.93h-1.42c.17-.47,1.08-.31,1.19-.28,.22,.07,.2,.11,.23,.28Z"/>
      <path class="cls-37" d="M129.78,79.62c.15,.32,.1,.76,.28,1.15,.19,.43,.44,.55,.66,.83,.43,.56,.8,1.37,.58,2.33-.31,1.4-1.84,2.6-3.59,1.92-1.27-.5-2.31-2.22-1.33-3.85,.36-.6,.99-.91,1.1-1.82,.08-.74,.11-.63,.87-.62,.42,0,1.1-.04,1.43,.06Z"/>
      <path class="cls-42" d="M127.86,79.91h1.65c.17,.89,.21,1.12,.71,1.68,.37,.41,.75,.77,.8,1.6,.09,1.38-1.01,2.5-2.34,2.5-1.32,0-2.4-1.11-2.32-2.49,.02-.33,.12-.65,.25-.91,.19-.39,.32-.44,.55-.68,.4-.43,.58-.91,.7-1.7Z"/>
      <path class="cls-37" d="M126.97,83.45c.59,.02,.09,.42,.73,1.04,.6,.58,1.12,.12,1.11,.65-.7,.42-2.1-.88-1.84-1.7Z"/>
      <path class="cls-37" d="M127.62,79.16c.24-.16,1.98-.13,2.16,.01,0,.29-.06,.25-.37,.26-.7,0-1.89,.15-1.78-.27Z"/>
      <path class="cls-37" d="M129.2,78.54c.4,0,.47-.07,.46,.31-.18,.04-1.72,.08-1.86,0-.51-.28,.33-.31,1.4-.32Z"/>
      <path class="cls-37" d="M129.4,78.38h-1.42c.17-.47,1.08-.32,1.19-.28,.22,.07,.2,.11,.23,.28Z"/>
      <path class="cls-37" d="M129.9,35.85c.15,.32,.1,.76,.28,1.15,.19,.43,.44,.55,.66,.83,.43,.56,.8,1.37,.58,2.33-.31,1.4-1.84,2.6-3.59,1.92-1.27-.5-2.31-2.22-1.33-3.85,.36-.6,.99-.91,1.1-1.82,.09-.74,.11-.63,.87-.62,.42,0,1.1-.04,1.43,.06Z"/>
      <path class="cls-42" d="M127.97,36.14h1.65c.17,.89,.21,1.12,.71,1.68,.37,.41,.75,.77,.8,1.6,.09,1.38-1.01,2.5-2.34,2.5-1.32,0-2.4-1.11-2.32-2.49,.02-.33,.12-.65,.25-.91,.19-.39,.32-.44,.55-.68,.4-.43,.58-.91,.7-1.7Z"/>
      <path class="cls-37" d="M127.09,39.68c.59,.02,.09,.42,.73,1.04,.6,.58,1.12,.12,1.11,.65-.7,.42-2.1-.88-1.84-1.7Z"/>
      <path class="cls-37" d="M127.73,35.38c.24-.16,1.98-.13,2.16,0,0,.29-.06,.25-.37,.26-.7,0-1.89,.15-1.78-.27Z"/>
      <path class="cls-37" d="M129.31,34.77c.4,0,.47-.07,.46,.31-.18,.04-1.72,.08-1.86,0-.51-.28,.33-.31,1.4-.32Z"/>
      <path class="cls-37" d="M129.51,34.61h-1.42c.17-.47,1.08-.31,1.19-.28,.22,.07,.2,.11,.23,.28Z"/>
      <g>
        <path class="cls-37" d="M235.77,35.85c.15,.32,.1,.76,.28,1.15,.19,.43,.44,.55,.66,.83,.43,.56,.8,1.37,.58,2.33-.31,1.4-1.84,2.6-3.59,1.92-1.27-.5-2.31-2.22-1.33-3.85,.36-.6,.99-.91,1.1-1.82,.09-.74,.11-.63,.87-.62,.42,0,1.1-.04,1.43,.06Z"/>
        <path class="cls-41" d="M233.85,36.14h1.65c.17,.89,.21,1.12,.71,1.68,.37,.41,.75,.77,.8,1.6,.09,1.38-1.01,2.5-2.34,2.5-1.32,0-2.4-1.11-2.32-2.49,.02-.33,.12-.65,.25-.91,.19-.39,.32-.44,.55-.68,.4-.43,.58-.91,.7-1.7Z"/>
        <path class="cls-37" d="M232.96,39.68c.59,.02,.09,.42,.73,1.04,.6,.58,1.12,.12,1.11,.65-.7,.42-2.1-.88-1.84-1.7Z"/>
        <path class="cls-37" d="M233.6,35.38c.24-.16,1.98-.13,2.16,0,0,.29-.06,.25-.37,.26-.7,0-1.89,.15-1.78-.27Z"/>
        <path class="cls-37" d="M235.19,34.77c.4,0,.47-.07,.46,.31-.18,.04-1.72,.08-1.86,0-.51-.28,.33-.31,1.4-.32Z"/>
        <path class="cls-37" d="M235.38,34.61h-1.42c.17-.47,1.08-.31,1.19-.28,.22,.07,.2,.11,.23,.28Z"/>
      </g>
      <path class="cls-37" d="M281.4,302.97l-.36,.13c-.08,.42-.07,6.26,.01,6.57,.01,0,.17,.06,.18,.06,.12,.05,.1,.03,.17,.09,0,.52-.09,1.8,.05,2.2,.13,.17,2.4,.08,2.59,.08h7.36c.16,0,.33,.02,.48-.02,.11-.03,.08-.03,.12-.06,.14-.4,.04-1.67,.04-2.2,.11-.09,.19-.07,.35-.16,.08-.29,.09-6.14,.01-6.55l-.37-.11c.03-2.8,.35-2.33-1.47-2.33-2.8,0-5.81,.04-8.58,0-.79-.01-.58-.08-.58,2.3Z"/>
      <path class="cls-42" d="M281.44,309.34h10.6v-5.9s-.06,0-.06,0h-10.5c-.11,.61-.13,5.49-.03,5.9Z"/>
      <path class="cls-37" d="M282.21,308.13c.39,.09,2.76,.04,3.48,.04,1.64,0,1.18,.38,1.23-2.95,.01-.85-.09-.6-2.38-.6s-2.37-.24-2.36,.6c.01,.85-.08,2.16,.03,2.92Z"/>
      <path class="cls-42" d="M281.8,311.7h.25s9.6,0,9.6,0v-1.95h-.78c0,.83,.38,.35,.39,.97,0,.74-1.1,.81-1.17,.05-.06-.67,.39-.17,.39-1.03h-1.18c0,.85,.33,.26,.39,.92,.03,.36-.15,.59-.46,.64-.66,.11-1.05-.76-.32-1.14v-.41c-.39-.03-.79-.03-1.18,.01,0,.71,.23,.35,.36,.78,.25,.83-1.08,1.1-1.14,.23-.05-.68,.39-.2,.39-1.03h-1.18c.01,.85,.38,.32,.39,.98,0,.82-1.25,.76-1.17-.06,.06-.55,.38-.11,.38-.92h-1.18v.42c.78,.4,.3,1.29-.38,1.12-.3-.08-.48-.37-.39-.74,.13-.55,.37-.01,.37-.81h-1.18c.02,.88,.39,.32,.39,.98,0,.32-.23,.57-.55,.59-.36,.02-.59-.22-.62-.53-.05-.64,.39-.2,.39-1.03h-.79v1.96Z"/>
      <path class="cls-42" d="M281.8,303.03h.79c0-.06,0-.2,0-.25-.08-.44-.29-.17-.38-.6-.08-.4,.18-.69,.55-.71,.38-.01,.65,.27,.61,.65-.04,.41-.29,.28-.37,.6-.02,.09-.01,.22-.01,.32h1.18c0-.85-.43-.36-.39-1.02,.05-.72,1.12-.73,1.17,0,.04,.68-.39,.16-.39,1.01h1.18s0-.38,0-.38c-.21-.18-.47-.28-.36-.76,.17-.71,1.38-.49,1.12,.33-.14,.45-.36,.07-.36,.81h1.18c0-.8-.28-.35-.38-.86-.08-.39,.19-.7,.56-.71,.38,0,.64,.28,.6,.67-.07,.64-.38,.07-.38,.87l1.18,.03c0-.85-.43-.32-.39-1.02,.05-.74,1.12-.71,1.17,0,.04,.64-.38,.16-.38,1.02h1.18c0-.06,0-.2,0-.26-.06-.32,.04-.06-.11-.23-.14-.16-.21-.11-.26-.38-.23-1.19,1.93-.68,.92,.34-.1,.11-.09,.05-.13,.2-.02,.09-.01,.22-.01,.32h.78s0-1.96,0-1.96h-9.78s-.06,1.96-.06,1.96Z"/>
      <polygon class="cls-42" points="282.59 307.74 282.82 307.77 286.24 307.77 286.52 307.76 286.52 305.02 282.59 305.01 282.59 307.74"/>
      <path class="cls-37" d="M289.04,304.68c-2.4,.68-1.24,4.08,.94,3.41,2.21-.68,1.24-4.03-.94-3.41Z"/>
      <path class="cls-42" d="M289.13,305.08c-1.87,.57-.92,3.12,.73,2.62,1.77-.54,.93-3.13-.73-2.62Z"/>
      <g>
        <path class="cls-35" d="M285.3,316.99v.03s.74,0,.77,0c.02,0,0,0,.02,0l.02-1.43c.06,.05,.59,.65,.65,.72l.56,.63s.06,.07,.08,.09h.92c.02-.07,0-.71,0-.83v-1.5s-.8,0-.8,0v1.44s-.6-.69-.63-.72l-.55-.63s-.06-.09-.11-.09h-.95v2.3Z"/>
        <path class="cls-35" d="M281.63,317.04h.81c0-.2,0-.4,0-.59,0-.1,0-.07,.13-.18,.04-.03,.15-.14,.19-.15,.03,.02,.14,.14,.17,.17l.52,.51c.3,.3,.2,.25,.46,.25,.15,0,.65,0,.76,0-.04-.05-.44-.43-.52-.51-.06-.06-.12-.11-.18-.17-.17-.17-.35-.34-.52-.51-.06-.06-.12-.11-.17-.18,.03-.05,.09-.08,.14-.12,.11-.09,.31-.26,.42-.36,.05-.04,.09-.08,.14-.12,.05-.04,.1-.08,.15-.12,.05-.04,.09-.08,.14-.12,.04-.03,.11-.09,.14-.13h-.79s-.13,.1-.21,.15c-.05,.04-.32,.27-.39,.33l-.2,.16c-.06,.05-.35,.31-.39,.33v-.97h-.81v2.33Z"/>
        <path class="cls-35" d="M290.08,315.82s-.46,.39-.53,.45c-.11,.1-.2,.17-.32,.26l-.22,.19c-.06,.05-.34,.28-.36,.31h.77c.05,0,.05-.01,.08-.04,.02-.02,.04-.03,.06-.05,.04-.04,.08-.07,.12-.11l.38-.32s.09-.07,.13-.11c.04-.04,.22-.19,.25-.22,.03,.01,.08,.07,.12,.1,.11,.11,.22,.21,.32,.31,.1,.11,.22,.21,.32,.31l.11,.11c.3,0,.67,0,.97,0-.01-.02-.05-.06-.08-.08l-.25-.24c-.18-.17-.38-.38-.56-.55l-.16-.16c-.07-.07-.18-.18-.25-.24,.02-.04,.26-.22,.31-.27,.05-.05,.1-.08,.16-.13,.03-.02,.05-.04,.08-.06,.05-.04,.69-.57,.71-.59-.24,0-.54,0-.79,0-.03,0-.04,.02-.06,.03-.02,.02-.03,.03-.06,.04-.04,.03-.07,.06-.11,.09-.08,.07-.59,.5-.63,.52l-.64-.61s-.05-.07-.11-.07c-.26,0-.67,0-.91,0,.03,.03,.1,.1,.14,.13,.05,.05,.09,.09,.14,.14,.05,.05,.09,.09,.14,.14,.05,.05,.1,.09,.14,.14,.1,.11,.3,.29,.42,.42,.03,.03,.11,.12,.14,.14Z"/>
        <path class="cls-35" d="M286.94,313.37c1.46,.04,2.81,.23,3.98,.88,.18,.1,.34,.19,.49,.29,.04,.03,.33,.02,.4,.02,.14,0,.29,0,.43,0-.03-.05-.39-.3-.48-.36-.94-.59-1.97-.95-3.16-1.16-.45-.08-1.19-.18-1.66-.14v.47Z"/>
        <path class="cls-35" d="M286.94,313.37v-.47c-.5-.02-1.18,.06-1.66,.14-1,.18-1.78,.42-2.62,.85-.22,.11-.6,.34-.78,.48-.02,.02-.04,.02-.06,.04-.02,.02-.04,.03-.06,.04-.04,.03-.08,.07-.11,.09,.11,.01,.3,0,.42,0,.09,0,.35,.02,.4-.01,.06-.04,.14-.1,.23-.16,.08-.05,.16-.09,.25-.14,.73-.39,1.56-.63,2.44-.76,.53-.08,1.01-.1,1.56-.12Z"/>
      </g>
      <line class="cls-27" x1="128.68" y1="163.58" x2="128.68" y2="160.56"/>
      <line class="cls-27" x1="180.48" y1="163.58" x2="180.48" y2="160.56"/>
      <line class="cls-27" x1="234.56" y1="163.58" x2="234.56" y2="160.56"/>
      <line class="cls-2" x1="128.68" y1="163.58" x2="128.68" y2="160.56"/>
      <line class="cls-27" x1="180.48" y1="163.58" x2="180.48" y2="160.56"/>
      <line class="cls-27" x1="234.56" y1="163.58" x2="234.56" y2="160.56"/>
      <line class="cls-27" x1="128.68" y1="120.08" x2="128.68" y2="117.06"/>
      <line class="cls-27" x1="180.48" y1="120.08" x2="180.48" y2="117.06"/>
      <line class="cls-27" x1="234.56" y1="120.08" x2="234.56" y2="117.06"/>
      <line class="cls-27" x1="128.68" y1="120.08" x2="128.68" y2="117.06"/>
      <line class="cls-27" x1="180.48" y1="120.08" x2="180.48" y2="117.06"/>
      <line class="cls-27" x1="234.56" y1="120.08" x2="234.56" y2="117.06"/>
      <line class="cls-27" x1="128.68" y1="75.81" x2="128.68" y2="72.79"/>
      <line class="cls-27" x1="180.48" y1="75.81" x2="180.48" y2="72.79"/>
      <line class="cls-27" x1="234.56" y1="75.81" x2="234.56" y2="72.79"/>
      <line class="cls-27" x1="128.68" y1="75.81" x2="128.68" y2="72.79"/>
      <line class="cls-27" x1="180.48" y1="75.81" x2="180.48" y2="72.79"/>
      <line class="cls-27" x1="234.56" y1="75.81" x2="234.56" y2="72.79"/>
      <line class="cls-27" x1="128.68" y1="31.86" x2="128.68" y2="28.85"/>
      <line class="cls-27" x1="180.48" y1="31.86" x2="180.48" y2="28.85"/>
      <line class="cls-27" x1="234.56" y1="31.86" x2="234.56" y2="28.85"/>
      <line class="cls-27" x1="128.68" y1="31.86" x2="128.68" y2="28.85"/>
      <line class="cls-27" x1="180.48" y1="31.86" x2="180.48" y2="28.85"/>
      <line class="cls-27" x1="234.56" y1="31.86" x2="234.56" y2="28.85"/>
      <line class="cls-27" x1="234.56" y1="28.85" x2="128.68" y2="28.85"/>
      <line class="cls-27" x1="234.56" y1="72.79" x2="128.68" y2="72.79"/>
      <line class="cls-27" x1="234.56" y1="117.06" x2="128.68" y2="117.06"/>
      <line class="cls-27" x1="234.56" y1="160.56" x2="128.68" y2="160.56"/>
      <line class="cls-27" x1="208.68" y1="264.83" x2="208.68" y2="28.84"/>
      <line class="cls-27" x1="208.68" y1="273.55" x2="208.68" y2="269.36"/>
      <path class="cls-35" d="M244.39,33.37c-.21,.12-.37,.08-.63,.08-6.71-.06-13.67,0-20.38,0v1.32h19.76c.23,0,.47,0,.7,0,.38,0,.36-.04,.56,.08v.92s-21.11,0-21.11,0v1.42h21.1v.94h-21.1v1.42s21.09,0,21.09,0l.02,.92c-.22,.13-.37,.09-.65,.08-6.69-.06-13.68,0-20.38,0v1.32h10.51c.3,0,10.16-.12,10.5,.07v.91s-21.09,0-21.09,0v1.42h21.16l-.06,.94h-21.08l-.16,1.42h21.22c.01,.97,.14,1.18-.17,1.44-1.12,.91,.14,1.4,.18,1.64v1.25l.4,.02v-1.26c.13-.37,.61-.24,.61-.93,0-.68-.49-.55-.61-.93v-1.2s1.34-.02,1.34-.02v-1.41s-1.34,0-1.34,0v-.91s1.31-.02,1.31-.02v-1.37s-1.34-.05-1.34-.05c-.02-.32-.06-.68,.05-.98h1.29s0-1.37,0-1.37l-1.34-.02v-.99s1.34,0,1.34,0v-1.38s-1.31,0-1.31,0v-.91s1.3-.02,1.3-.02v-1.37s-1.32-.04-1.32-.04c-.04-.31-.06-.67,.03-.98h1.3v-1.37h-1.29s-.06-.33-.06-.33l-.34,.04-.02,.24Z"/>
      <path class="cls-35" d="M138.97,77.79c-.21,.12-.37,.08-.63,.08-6.71-.06-13.67,0-20.38,0v1.32h19.76c.23,0,.47,0,.7,0,.38,0,.36-.04,.56,.08v.92s-21.11,0-21.11,0v1.42h21.1v.94h-21.1v1.42s21.09,0,21.09,0l.02,.92c-.22,.13-.37,.09-.65,.08-6.69-.06-13.68,0-20.38,0v1.32h10.51c.3,0,10.16-.12,10.5,.07v.91s-21.09,0-21.09,0v1.42h21.16l-.06,.94h-21.08l-.16,1.42h21.22c.01,.97,.14,1.19-.17,1.44-1.12,.91,.14,1.4,.18,1.64v1.25l.4,.02v-1.26c.13-.37,.61-.24,.61-.93,0-.68-.49-.55-.61-.93v-1.2s1.34-.02,1.34-.02v-1.41s-1.34,0-1.34,0v-.91s1.31-.02,1.31-.02v-1.37l-1.34-.05c-.02-.32-.06-.68,.05-.98h1.29v-1.37l-1.34-.02v-.99s1.34,0,1.34,0v-1.38s-1.31,0-1.31,0v-.91s1.3-.02,1.3-.02v-1.37s-1.32-.04-1.32-.04c-.04-.31-.06-.67,.03-.98h1.3v-1.37h-1.29s-.06-.33-.06-.33l-.34,.04-.02,.24Z"/>
      <path class="cls-35" d="M138.39,33.37c-.21,.12-.37,.08-.63,.08-6.71-.06-13.67,0-20.38,0v1.32h19.76c.23,0,.47,0,.7,0,.38,0,.36-.04,.56,.08v.92s-21.11,0-21.11,0v1.42h21.1v.94h-21.1v1.42s21.09,0,21.09,0l.02,.92c-.22,.13-.37,.08-.65,.08-6.69-.06-13.68,0-20.38,0v1.32h10.51c.3,0,10.16-.12,10.5,.07v.91s-21.09,0-21.09,0v1.42h21.16l-.06,.94h-21.08l-.16,1.42h21.22c.01,.97,.14,1.18-.17,1.44-1.12,.91,.14,1.4,.18,1.64v1.25l.4,.02v-1.26c.13-.37,.61-.24,.61-.93,0-.68-.49-.55-.61-.93v-1.2s1.34-.02,1.34-.02v-1.41s-1.34,0-1.34,0v-.91s1.31-.02,1.31-.02v-1.37l-1.34-.05c-.02-.32-.06-.68,.05-.98h1.29v-1.37l-1.34-.02v-.99s1.34-.01,1.34-.01v-1.38s-1.31,0-1.31,0v-.91l1.3-.02v-1.37s-1.32-.04-1.32-.04c-.04-.31-.06-.67,.03-.98h1.3v-1.37h-1.29s-.06-.33-.06-.33l-.34,.04-.02,.24Z"/>
      <g>
        <g>
          <path class="cls-37" d="M262.98,302.97l-.36,.13c-.08,.42-.07,6.26,.01,6.57,.01,0,.17,.06,.18,.06,.12,.05,.1,.03,.17,.09,0,.52-.09,1.8,.05,2.2,.13,.17,2.4,.08,2.59,.08h7.36c.16,0,.33,.02,.48-.02,.11-.03,.08-.03,.12-.06,.14-.4,.04-1.67,.04-2.2,.11-.09,.19-.07,.35-.16,.08-.29,.09-6.14,.01-6.55l-.37-.11c.03-2.8,.35-2.33-1.47-2.33-2.8,0-5.81,.04-8.58,0-.79-.01-.58-.08-.58,2.3Z"/>
          <path class="cls-42" d="M263.02,309.34h10.6v-5.9s-.06,0-.06,0h-10.5c-.11,.61-.13,5.49-.03,5.9Z"/>
          <path class="cls-37" d="M263.79,308.13c.39,.09,2.76,.04,3.48,.04,1.64,0,1.18,.38,1.23-2.95,.01-.85-.09-.6-2.38-.6s-2.37-.24-2.36,.6c.01,.85-.08,2.16,.03,2.92Z"/>
          <path class="cls-42" d="M263.38,311.7h.25s9.6,0,9.6,0v-1.95h-.78c0,.83,.38,.35,.39,.97,0,.74-1.1,.81-1.17,.05-.06-.67,.39-.17,.39-1.03h-1.18c0,.85,.33,.26,.39,.92,.03,.36-.15,.59-.46,.64-.66,.11-1.05-.76-.32-1.14v-.41c-.39-.03-.79-.03-1.18,.01,0,.71,.23,.35,.36,.78,.25,.83-1.08,1.1-1.14,.23-.05-.68,.39-.2,.39-1.03h-1.18c.01,.85,.38,.32,.39,.98,0,.82-1.25,.76-1.17-.06,.05-.55,.38-.11,.38-.92h-1.18v.42c.78,.4,.3,1.29-.38,1.12-.3-.08-.48-.37-.39-.74,.13-.55,.37-.01,.37-.81h-1.18c.02,.88,.39,.32,.39,.98,0,.32-.23,.57-.55,.59-.36,.02-.59-.22-.62-.53-.05-.64,.39-.2,.39-1.03h-.79v1.96Z"/>
          <path class="cls-42" d="M263.38,303.03h.79c0-.06,0-.2,0-.25-.08-.44-.29-.17-.38-.6-.08-.4,.18-.69,.55-.71,.38-.01,.65,.27,.61,.65-.04,.41-.29,.28-.37,.6-.02,.09-.01,.22-.01,.32h1.18c0-.85-.43-.36-.39-1.02,.05-.72,1.12-.73,1.17,0,.04,.68-.39,.16-.39,1.01h1.18s0-.38,0-.38c-.21-.18-.47-.28-.36-.76,.17-.71,1.38-.49,1.12,.33-.14,.45-.36,.07-.36,.81h1.18c0-.8-.28-.35-.38-.86-.08-.39,.19-.7,.56-.71,.38,0,.64,.28,.6,.67-.07,.64-.38,.07-.38,.87l1.18,.03c0-.85-.43-.32-.39-1.02,.05-.74,1.12-.71,1.17,0,.04,.64-.38,.16-.38,1.02h1.18c0-.06,0-.2,0-.26-.06-.32,.04-.06-.11-.23-.14-.16-.21-.11-.26-.38-.23-1.19,1.93-.68,.92,.34-.1,.11-.09,.05-.13,.2-.02,.09-.01,.22-.01,.32h.78s0-1.96,0-1.96h-9.78s-.06,1.96-.06,1.96Z"/>
          <polygon class="cls-42" points="264.17 307.74 264.4 307.77 267.82 307.77 268.1 307.76 268.1 305.02 264.17 305.01 264.17 307.74"/>
          <path class="cls-37" d="M270.62,304.68c-2.4,.68-1.24,4.08,.94,3.41,2.21-.68,1.24-4.03-.94-3.41Z"/>
          <path class="cls-42" d="M270.71,305.08c-1.87,.57-.92,3.12,.73,2.62,1.77-.54,.93-3.13-.73-2.62Z"/>
          <g>
            <path class="cls-43" d="M265.85,307.08h0s.23,.01,.23,0c0,0,0,0,0,0v-.53s.19,.24,.2,.26l.17,.23s.02,.02,.02,.03h.28s0-.26,0-.3v-.55s-.24,0-.24,0v.53s-.18-.25-.19-.27l-.17-.23s-.02-.03-.03-.03h-.29v.85Z"/>
            <path class="cls-39" d="M264.73,307.1h.25c0-.07,0-.15,0-.22,0-.04,0-.02,.04-.07,.01-.01,.05-.05,.06-.06,0,0,.04,.05,.05,.06l.16,.19c.09,.11,.06,.09,.14,.09,.04,0,.2,0,.23,0-.01-.02-.13-.16-.16-.19-.02-.02-.04-.04-.05-.06-.05-.06-.11-.12-.16-.19-.02-.02-.04-.04-.05-.07,0-.02,.03-.03,.04-.04,.03-.03,.09-.1,.13-.13,.01-.02,.03-.03,.04-.04,.01-.01,.03-.03,.04-.04,.01-.02,.03-.03,.04-.04,.01-.01,.04-.03,.04-.05h-.24s-.04,.04-.06,.06c-.02,.01-.1,.1-.12,.12l-.06,.06s-.11,.11-.12,.12v-.36h-.25v.86Z"/>
            <path class="cls-36" d="M267.3,306.65s-.14,.14-.16,.17c-.03,.04-.06,.06-.1,.1l-.07,.07s-.1,.1-.11,.11h.23s.02,0,.02-.01c0,0,.01-.01,.02-.02,.01-.01,.02-.03,.04-.04l.11-.12s.03-.03,.04-.04c.01-.01,.07-.07,.08-.08,.01,0,.03,.03,.04,.04,.03,.04,.07,.08,.1,.12,.03,.04,.07,.08,.1,.12l.03,.04c.09,0,.2,0,.29,0,0,0-.02-.02-.02-.03l-.07-.09c-.06-.06-.12-.14-.17-.2l-.05-.06s-.06-.07-.07-.09c0-.01,.08-.08,.09-.1,.02-.02,.03-.03,.05-.05,0,0,.02-.01,.03-.02,.02-.01,.21-.21,.22-.22-.07,0-.16,0-.24,0,0,0-.01,0-.02,.01,0,0-.01,0-.02,.02-.01,.01-.02,.02-.03,.03-.02,.03-.18,.18-.19,.19l-.19-.23s-.02-.03-.03-.03c-.08,0-.2,0-.28,0,0,.01,.03,.04,.04,.05,.01,.02,.03,.03,.04,.05,.02,.02,.03,.03,.04,.05,.01,.02,.03,.03,.04,.05,.03,.04,.09,.11,.13,.15,0,.01,.03,.04,.04,.05Z"/>
            <path class="cls-36" d="M266.35,305.75c.44,.01,.85,.09,1.21,.32,.05,.04,.1,.07,.15,.11,.01,.01,.1,0,.12,0,.04,0,.09,0,.13,0,0-.02-.12-.11-.15-.13-.29-.22-.6-.35-.96-.43-.14-.03-.36-.06-.5-.05v.17Z"/>
            <path class="cls-39" d="M266.35,305.75v-.17c-.15,0-.36,.02-.5,.05-.3,.06-.54,.15-.8,.31-.07,.04-.18,.13-.24,.18,0,0-.01,0-.02,.02,0,0-.01,.01-.02,.02-.01,.01-.02,.02-.03,.03,.03,0,.09,0,.13,0,.03,0,.11,0,.12,0,.02-.01,.04-.04,.07-.06,.02-.02,.05-.03,.08-.05,.22-.14,.47-.23,.74-.28,.16-.03,.31-.04,.47-.04Z"/>
          </g>
        </g>
        <path class="cls-42" d="M263.02,309.34h10.6v-5.9s-.06,0-.06,0h-10.5c-.11,.61-.13,5.49-.03,5.9Z"/>
        <path class="cls-37" d="M263.79,308.13c.39,.09,2.76,.04,3.48,.04,1.64,0,1.18,.38,1.23-2.95,.01-.85-.09-.6-2.38-.6s-2.37-.24-2.36,.6c.01,.85-.08,2.16,.03,2.92Z"/>
        <path class="cls-42" d="M263.38,311.7h.25s9.6,0,9.6,0v-1.95h-.78c0,.83,.38,.35,.39,.97,0,.74-1.1,.81-1.17,.05-.06-.67,.39-.17,.39-1.03h-1.18c0,.85,.33,.26,.39,.92,.03,.36-.15,.59-.46,.64-.66,.11-1.05-.76-.32-1.14v-.41c-.39-.03-.79-.03-1.18,.01,0,.71,.23,.35,.36,.78,.25,.83-1.08,1.1-1.14,.23-.05-.68,.39-.2,.39-1.03h-1.18c.01,.85,.38,.32,.39,.98,0,.82-1.25,.76-1.17-.06,.05-.55,.38-.11,.38-.92h-1.18v.42c.78,.4,.3,1.29-.38,1.12-.3-.08-.48-.37-.39-.74,.13-.55,.37-.01,.37-.81h-1.18c.02,.88,.39,.32,.39,.98,0,.32-.23,.57-.55,.59-.36,.02-.59-.22-.62-.53-.05-.64,.39-.2,.39-1.03h-.79v1.96Z"/>
        <path class="cls-42" d="M263.38,303.03h.79c0-.06,0-.2,0-.25-.08-.44-.29-.17-.38-.6-.08-.4,.18-.69,.55-.71,.38-.01,.65,.27,.61,.65-.04,.41-.29,.28-.37,.6-.02,.09-.01,.22-.01,.32h1.18c0-.85-.43-.36-.39-1.02,.05-.72,1.12-.73,1.17,0,.04,.68-.39,.16-.39,1.01h1.18s0-.38,0-.38c-.21-.18-.47-.28-.36-.76,.17-.71,1.38-.49,1.12,.33-.14,.45-.36,.07-.36,.81h1.18c0-.8-.28-.35-.38-.86-.08-.39,.19-.7,.56-.71,.38,0,.64,.28,.6,.67-.07,.64-.38,.07-.38,.87l1.18,.03c0-.85-.43-.32-.39-1.02,.05-.74,1.12-.71,1.17,0,.04,.64-.38,.16-.38,1.02h1.18c0-.06,0-.2,0-.26-.06-.32,.04-.06-.11-.23-.14-.16-.21-.11-.26-.38-.23-1.19,1.93-.68,.92,.34-.1,.11-.09,.05-.13,.2-.02,.09-.01,.22-.01,.32h.78s0-1.96,0-1.96h-9.78s-.06,1.96-.06,1.96Z"/>
        <polygon class="cls-42" points="264.17 307.74 264.4 307.77 267.82 307.77 268.1 307.76 268.1 305.02 264.17 305.01 264.17 307.74"/>
        <path class="cls-37" d="M270.62,304.68c-2.4,.68-1.24,4.08,.94,3.41,2.21-.68,1.24-4.03-.94-3.41Z"/>
        <path class="cls-42" d="M270.71,305.08c-1.87,.57-.92,3.12,.73,2.62,1.77-.54,.93-3.13-.73-2.62Z"/>
      </g>
      <g>
        <g>
          <path class="cls-37" d="M244.8,302.97l-.36,.13c-.08,.42-.07,6.26,.01,6.57,.01,0,.17,.06,.18,.06,.12,.05,.1,.03,.17,.09,0,.52-.09,1.8,.05,2.2,.13,.17,2.4,.08,2.59,.08h7.36c.16,0,.33,.02,.48-.02,.11-.03,.08-.03,.12-.06,.14-.4,.04-1.67,.04-2.2,.11-.09,.19-.07,.35-.16,.08-.29,.09-6.14,.01-6.55l-.37-.11c.03-2.8,.35-2.33-1.47-2.33-2.8,0-5.81,.04-8.58,0-.79-.01-.58-.08-.58,2.3Z"/>
          <path class="cls-42" d="M244.84,309.34h10.6v-5.9s-.06,0-.06,0h-10.5c-.11,.61-.13,5.49-.03,5.9Z"/>
          <path class="cls-37" d="M245.61,308.13c.39,.09,2.76,.04,3.48,.04,1.64,0,1.18,.38,1.23-2.95,.01-.85-.09-.6-2.38-.6s-2.37-.24-2.36,.6c.01,.85-.08,2.16,.03,2.92Z"/>
          <path class="cls-42" d="M245.2,311.7h.25s9.6,0,9.6,0v-1.95h-.78c0,.83,.38,.35,.39,.97,0,.74-1.1,.81-1.17,.05-.06-.67,.39-.17,.39-1.03h-1.18c0,.85,.33,.26,.39,.92,.03,.36-.15,.59-.46,.64-.66,.11-1.05-.76-.32-1.14v-.41c-.39-.03-.79-.03-1.18,.01,0,.71,.23,.35,.36,.78,.25,.83-1.08,1.1-1.14,.23-.05-.68,.39-.2,.39-1.03h-1.18c.01,.85,.38,.32,.39,.98,0,.82-1.25,.76-1.17-.06,.05-.55,.38-.11,.38-.92h-1.18v.42c.78,.4,.3,1.29-.38,1.12-.3-.08-.48-.37-.39-.74,.14-.55,.37-.01,.37-.81h-1.18c.02,.88,.39,.32,.39,.98,0,.32-.23,.57-.55,.59-.36,.02-.59-.22-.62-.53-.05-.64,.39-.2,.39-1.03h-.78v1.96Z"/>
          <path class="cls-42" d="M245.2,303.03h.79c0-.06,0-.2,0-.25-.08-.44-.29-.17-.38-.6-.08-.4,.18-.69,.55-.71,.38-.01,.65,.27,.61,.65-.04,.41-.29,.28-.37,.6-.02,.09-.01,.22-.01,.32h1.18c0-.85-.43-.36-.39-1.02,.05-.72,1.12-.73,1.17,0,.04,.68-.39,.16-.39,1.01h1.18s0-.38,0-.38c-.21-.18-.47-.28-.36-.76,.17-.71,1.38-.49,1.12,.33-.14,.45-.36,.07-.36,.81h1.18c0-.8-.28-.35-.38-.86-.08-.39,.19-.7,.56-.71,.38,0,.64,.28,.6,.67-.07,.64-.38,.07-.38,.87l1.18,.03c0-.85-.43-.32-.39-1.02,.05-.74,1.12-.71,1.17,0,.04,.64-.38,.16-.38,1.02h1.18c0-.06,0-.2,0-.26-.06-.32,.04-.06-.11-.23-.14-.16-.21-.11-.26-.38-.23-1.19,1.93-.68,.92,.34-.1,.11-.09,.05-.13,.2-.02,.09-.01,.22-.01,.32h.78s0-1.96,0-1.96h-9.78s-.06,1.96-.06,1.96Z"/>
          <polygon class="cls-42" points="245.99 307.74 246.22 307.77 249.64 307.77 249.92 307.76 249.92 305.02 245.99 305.01 245.99 307.74"/>
          <path class="cls-37" d="M252.44,304.68c-2.4,.68-1.24,4.08,.94,3.41,2.21-.68,1.24-4.03-.94-3.41Z"/>
          <path class="cls-42" d="M252.53,305.08c-1.87,.57-.92,3.12,.73,2.62,1.77-.54,.93-3.13-.73-2.62Z"/>
          <g>
            <path class="cls-43" d="M247.67,307.08h0s.23,.01,.23,0c0,0,0,0,0,0v-.53s.19,.24,.2,.26l.17,.23s.02,.02,.02,.03h.28s0-.26,0-.3v-.55s-.24,0-.24,0v.53s-.18-.25-.19-.27l-.17-.23s-.02-.03-.03-.03h-.29v.85Z"/>
            <path class="cls-39" d="M246.55,307.1h.25c0-.07,0-.15,0-.22,0-.04,0-.02,.04-.07,.01-.01,.05-.05,.06-.06,0,0,.04,.05,.05,.06l.16,.19c.09,.11,.06,.09,.14,.09,.05,0,.2,0,.23,0-.01-.02-.13-.16-.16-.19-.02-.02-.04-.04-.05-.06-.05-.06-.11-.12-.16-.19-.02-.02-.04-.04-.05-.07,0-.02,.03-.03,.04-.04,.03-.03,.09-.1,.13-.13,.01-.02,.03-.03,.04-.04,.01-.01,.03-.03,.04-.04,.02-.02,.03-.03,.04-.04,.01-.01,.03-.03,.04-.05h-.24s-.04,.04-.06,.06c-.02,.01-.1,.1-.12,.12l-.06,.06s-.11,.11-.12,.12v-.36h-.25v.86Z"/>
            <path class="cls-36" d="M249.12,306.65s-.14,.14-.16,.17c-.03,.04-.06,.06-.1,.1l-.07,.07s-.1,.1-.11,.11h.23s.02,0,.02-.01c0,0,.01-.01,.02-.02,.01-.01,.02-.03,.04-.04l.11-.12s.03-.03,.04-.04c.01-.01,.07-.07,.07-.08,.01,0,.03,.03,.04,.04,.03,.04,.07,.08,.1,.12,.03,.04,.07,.08,.1,.12l.03,.04c.09,0,.2,0,.29,0,0,0-.02-.02-.02-.03l-.07-.09c-.06-.06-.12-.14-.17-.2l-.05-.06s-.06-.07-.07-.09c0-.01,.08-.08,.09-.1,.02-.02,.03-.03,.05-.05,0,0,.02-.01,.03-.02,.02-.01,.21-.21,.22-.22-.07,0-.16,0-.24,0,0,0-.01,0-.02,.01,0,0-.01,0-.02,.02-.01,.01-.02,.02-.03,.03-.02,.03-.18,.18-.19,.19l-.19-.23s-.01-.03-.03-.03c-.08,0-.2,0-.28,0,0,.01,.03,.04,.04,.05,.01,.02,.03,.03,.04,.05,.01,.02,.03,.03,.04,.05,.01,.02,.03,.03,.04,.05,.03,.04,.09,.11,.13,.15,0,.01,.03,.04,.04,.05Z"/>
            <path class="cls-36" d="M248.17,305.75c.44,.01,.85,.09,1.21,.32,.05,.04,.1,.07,.15,.11,.01,.01,.1,0,.12,0,.04,0,.09,0,.13,0,0-.02-.12-.11-.15-.13-.29-.22-.6-.35-.96-.43-.14-.03-.36-.06-.5-.05v.17Z"/>
            <path class="cls-39" d="M248.17,305.75v-.17c-.15,0-.36,.02-.5,.05-.3,.06-.54,.15-.8,.31-.07,.04-.18,.13-.24,.18,0,0-.01,0-.02,.02,0,0-.01,.01-.02,.02-.01,.01-.02,.02-.03,.03,.03,0,.09,0,.13,0,.03,0,.11,0,.12,0,.02-.01,.04-.04,.07-.06,.02-.02,.05-.03,.08-.05,.22-.14,.47-.23,.74-.28,.16-.03,.31-.04,.47-.04Z"/>
          </g>
        </g>
        <path class="cls-42" d="M244.84,309.34h10.6v-5.9s-.06,0-.06,0h-10.5c-.11,.61-.13,5.49-.03,5.9Z"/>
        <path class="cls-37" d="M245.61,308.13c.39,.09,2.76,.04,3.48,.04,1.64,0,1.18,.38,1.23-2.95,.01-.85-.09-.6-2.38-.6s-2.37-.24-2.36,.6c.01,.85-.08,2.16,.03,2.92Z"/>
        <path class="cls-42" d="M245.2,311.7h.25s9.6,0,9.6,0v-1.95h-.78c0,.83,.38,.35,.39,.97,0,.74-1.1,.81-1.17,.05-.06-.67,.39-.17,.39-1.03h-1.18c0,.85,.33,.26,.39,.92,.03,.36-.15,.59-.46,.64-.66,.11-1.05-.76-.32-1.14v-.41c-.39-.03-.79-.03-1.18,.01,0,.71,.23,.35,.36,.78,.25,.83-1.08,1.1-1.14,.23-.05-.68,.39-.2,.39-1.03h-1.18c.01,.85,.38,.32,.39,.98,0,.82-1.25,.76-1.17-.06,.05-.55,.38-.11,.38-.92h-1.18v.42c.78,.4,.3,1.29-.38,1.12-.3-.08-.48-.37-.39-.74,.14-.55,.37-.01,.37-.81h-1.18c.02,.88,.39,.32,.39,.98,0,.32-.23,.57-.55,.59-.36,.02-.59-.22-.62-.53-.05-.64,.39-.2,.39-1.03h-.78v1.96Z"/>
        <path class="cls-42" d="M245.2,303.03h.79c0-.06,0-.2,0-.25-.08-.44-.29-.17-.38-.6-.08-.4,.18-.69,.55-.71,.38-.01,.65,.27,.61,.65-.04,.41-.29,.28-.37,.6-.02,.09-.01,.22-.01,.32h1.18c0-.85-.43-.36-.39-1.02,.05-.72,1.12-.73,1.17,0,.04,.68-.39,.16-.39,1.01h1.18s0-.38,0-.38c-.21-.18-.47-.28-.36-.76,.17-.71,1.38-.49,1.12,.33-.14,.45-.36,.07-.36,.81h1.18c0-.8-.28-.35-.38-.86-.08-.39,.19-.7,.56-.71,.38,0,.64,.28,.6,.67-.07,.64-.38,.07-.38,.87l1.18,.03c0-.85-.43-.32-.39-1.02,.05-.74,1.12-.71,1.17,0,.04,.64-.38,.16-.38,1.02h1.18c0-.06,0-.2,0-.26-.06-.32,.04-.06-.11-.23-.14-.16-.21-.11-.26-.38-.23-1.19,1.93-.68,.92,.34-.1,.11-.09,.05-.13,.2-.02,.09-.01,.22-.01,.32h.78s0-1.96,0-1.96h-9.78s-.06,1.96-.06,1.96Z"/>
        <polygon class="cls-42" points="245.99 307.74 246.22 307.77 249.64 307.77 249.92 307.76 249.92 305.02 245.99 305.01 245.99 307.74"/>
        <path class="cls-37" d="M252.44,304.68c-2.4,.68-1.24,4.08,.94,3.41,2.21-.68,1.24-4.03-.94-3.41Z"/>
        <path class="cls-42" d="M252.53,305.08c-1.87,.57-.92,3.12,.73,2.62,1.77-.54,.93-3.13-.73-2.62Z"/>
      </g>
      <line class="cls-27" x1="282.78" y1="302.03" x2="282.78" y2="273.56"/>
      <line class="cls-17" x1="247.78" y1="317.37" x2="247.78" y2="311.31"/>
      <line class="cls-17" x1="246.21" y1="315.97" x2="242.95" y2="315.97"/>
      <line class="cls-17" x1="246.21" y1="315.98" x2="246.21" y2="311.31"/>
      <line class="cls-17" x1="242.95" y1="294.05" x2="242.95" y2="315.97"/>
      <line class="cls-8" x1="52.26" y1="281.55" x2="52.26" y2="294.07"/>
      <line class="cls-5" x1="31.81" y1="281.55" x2="31.81" y2="294.07"/>
      <line class="cls-17" x1="264.33" y1="281.41" x2="264.33" y2="301.5"/>
      <line class="cls-27" x1="282.78" y1="273.56" x2="208.68" y2="273.56"/>
      <g>
        <path class="cls-35" d="M273.22,316.53h-.17s0,.5,0,.5h-2.87v-.46s-.18,0-.18,0v.46s-2.55,0-2.55,0v-1.11s-.17,0-.17,0v1.11s-2.45,0-2.45,0v-.5h-.17s0,.5,0,.5h-2.98v-.78h-.17v.96s15.07,0,15.07,0v-.62s-.18-.05-.18-.05v.5s-1.58,0-1.58,0v-.44c.61-.12,.57-.13,.85-.59l-.51-.1c-.1,.17-.16,.34-.47,.26-.21-.05-.29-.24-.3-.46,.31,0,.62,0,.93,0,.15,0,.34,.04,.37-.06,0-.02-.02-.31-.04-.37-.27-1.15-1.86-.96-1.8,.37,.02,.36,.18,.72,.51,.86,.35,.15,.3-.08,.3,.54h-1.45v-.5Z"/>
        <path class="cls-35" d="M264.66,316.54h.17c.59-.01,.91-.03,1.11-.44,.23-.48-.04-.86-.41-.99l.12-.12c.36-.32,.27-.86-.14-1.07-.3-.15-1.33-.12-1.78-.09v2.7s.92,0,.92,0Z"/>
        <path class="cls-35" d="M267.28,315.92h.17s.54,0,.54,0c.03,.11,.07,.21,.11,.32,.04,.1,.08,.21,.14,.29h.58c-.16-.42-.82-2.12-1.03-2.59-.08-.17,0-.13-.62-.13-.08,.12-1.02,2.56-1.07,2.71,.66,0,.55,.08,.68-.28,.05-.12,.08-.2,.1-.33h.4Z"/>
        <path class="cls-35" d="M270,316.57h.18c.58-.03,1.01-.42,1.03-.87l-.5-.16c-.11,.15-.07,.27-.24,.43-.13,.12-.31,.17-.54,.12-.69-.14-.67-1.57-.1-1.8,.42-.17,.69,.03,.85,.4l.53-.14c-.07-.32-.26-.55-.54-.68l-.27-.1s-.02,0-.03-.01h-.51l-.05,.02s-.04,.02-.05,.02c-.63,.22-.92,.67-.9,1.42,.01,.71,.43,1.29,1.14,1.33Z"/>
        <path class="cls-35" d="M276.41,316.54l.18,.05c.16,0,.33-.02,.47-.09l-.04-.4c-.48,.16-.36-.11-.36-1.11h.36s0-.42,0-.42h-.36s0-.69,0-.69c-.59,.32-.53,.23-.52,.69h-.23s0,.43,0,.43h.23c0,.54-.13,1.39,.27,1.54Z"/>
        <path class="cls-35" d="M272.66,314.92c0-.07,0-.12,0-.18,0-.04,0-.06,0-.1-.01-.09-.02-.08-.02-.09-.26,.07-.29,.17-.45,.27v-.25s-.49,0-.49,0v1.97s.52-.02,.52-.02c0-.34,0-.69,0-1.03,.01-.38,.09-.55,.45-.57Z"/>
        <path class="cls-35" d="M272.66,314.92c.32,.05,.28,.31,.28,.64,0,.3,0,.6,0,.9,.03,.1-.05,.06,.1,.07h.17s.25,0,.25,0c0-.4,.04-1.09-.01-1.46-.03-.21-.11-.36-.27-.45-.13-.08-.39-.14-.57-.07,0,.01,0,0,.02,.09,0,.04,0,.06,0,.1,0,.06,0,.12,0,.18Z"/>
        <path class="cls-35" d="M261.51,316.25h.17c.77-.02,.5,.23,1.23-1.04,.14-.25,.08-.26-.18-.72-.14-.24-.27-.52-.44-.72h-1.38c-.07,.1-.38,.59-.39,.7,.18,0,.19-.08,.26-.21,.07-.11,.13-.21,.18-.32h1.23c.09,.02,.65,1.05,.65,1.05-.04,.17-.2,.38-.29,.54-.11,.18-.19,.37-.32,.54h-1.26c-.09-.18-.21-.33-.3-.52h-.18c.14,.16,.27,.5,.42,.69l.61,.02Z"/>
        <path class="cls-35" d="M264.29,316.03v.04c.44,0,1.17,.14,1.16-.36-.01-.46-.72-.36-1.15-.36v.68Z"/>
        <path class="cls-35" d="M264.29,314.42v.47c.23,0,.76,.05,.93-.05,.19-.11,.24-.56-.27-.56h-.65s0,.14,0,.14Z"/>
        <path class="cls-35" d="M261,315.42h.11c.05-.1,.02-.05,.03-.17,0-.1,0-.12,.04-.19,.17,.04,.1,.13,.11,.36h.28s0-.03,.01-.02c.02,.06-.02-.13,.12-.11,.24,.04-.1,.1,.19,.13,.07-.11-.07-.71-.11-.82h-.15c-.05,.07-.05,.1-.07,.18l-.14,.61-.03-.39c0-.12,.1-.34-.09-.39-.11-.03-.24-.01-.35,0,0,.23-.06,.65,.03,.82Z"/>
        <path class="cls-35" d="M267.06,315.46h.75s-.35-.91-.35-.91c-.02-.04-.03-.04-.05-.07-.09,.29-.24,.71-.36,.98Z"/>
        <path class="cls-35" d="M260.5,315.42c.22-.02,.06,.02,.12-.31,0,0,0-.02,0-.03,0,0,0-.02,0-.03,0,0,0-.02,.01-.02,.27,.09-.11,.35,.21,.39,.06-.1,.05-.67,.01-.8,0,0,0-.02-.01-.03l-.13,.02c0,.4,.02,.29-.12,.3,0-.05,0-.14,0-.18,0-.06,0-.09-.04-.14-.17,0-.16,0-.14,.65,0,.17-.03,.12,.06,.17Z"/>
        <path class="cls-35" d="M274.42,315.37l.77,.02c-.03-.25-.12-.46-.39-.46-.25,0-.42,.23-.37,.44Z"/>
        <path class="cls-35" d="M259.43,315.3v.13c.37,0-.02-.13,.32-.14,0,.17-.02,.15,.17,.13-.03-.12-.05-.27-.08-.41-.05-.26-.02-.45-.2-.41-.11,.05-.03-.06-.09,.13-.04,.16-.05,.42-.13,.57Z"/>
        <path class="cls-35" d="M260.18,315.31c-.21-.08,.06-.17-.25-.18,0,.21,.09,.35,.3,.3,.25-.06,.21-.34,.07-.45-.12-.1-.17-.07-.18-.17-.02-.16,0-.07,.03-.11,.16,.07-.16-.11,.09,.1,.04,.03-.05,.05,.14,.04,.06-.53-.79-.18-.29,.18,.05,.04,.09,.04,.12,.11,.06,.12,.02,.14-.03,.19Z"/>
        <path class="cls-35" d="M261.98,315.42h.28c.19,0,.11,.02,.14-.06-.04-.09,.07-.07-.26-.07v-.25h.22c-.02-.16,0-.11-.22-.11v-.21s.13,0,.15,0c.16-.03,.06,.03,.1-.07-.09-.06-.28-.04-.41-.03v.81Z"/>
      </g>
      <text class="cls-48" transform="translate(248.69 316.73) scale(1.18 1)"><tspan x="0" y="0">LON</tspan></text>
      <line class="cls-27" x1="272.35" y1="301.62" x2="272.35" y2="282.8"/>
      <line class="cls-27" x1="254.02" y1="301.62" x2="254.02" y2="279.78"/>
      <line class="cls-27" x1="290.67" y1="301.62" x2="290.67" y2="285.82"/>
      <line class="cls-27" x1="333.67" y1="292.83" x2="333.67" y2="282.8"/>
      <line class="cls-27" x1="339.27" y1="292.83" x2="339.27" y2="279.78"/>
      <line class="cls-27" x1="327.19" y1="292.83" x2="327.19" y2="285.82"/>
      <line class="cls-27" x1="327.19" y1="285.82" x2="290.67" y2="285.82"/>
      <line class="cls-27" x1="333.67" y1="282.8" x2="272.35" y2="282.8"/>
      <line class="cls-27" x1="339.27" y1="279.78" x2="254.02" y2="279.78"/>
      <rect class="cls-12" x="35.37" y="294.13" width="8.4" height="15.13"/>
      <line class="cls-12" x1="43.77" y1="309.26" x2="35.37" y2="294.13"/>
      <rect class="cls-12" x="26.96" y="294.13" width="8.4" height="15.13"/>
      <circle class="cls-7" cx="31.16" cy="301.7" r=".84"/>
      <line class="cls-12" x1="32.84" y1="307.16" x2="29.48" y2="303.8"/>
      <line class="cls-4" x1="32.84" y1="299.59" x2="29.48" y2="296.23"/>
      <rect class="cls-12" x="43.77" y="294.13" width="15.13" height="15.13"/>
      <path class="cls-6" d="M51.33,306.74c2.78,0,5.04-2.27,5.04-5.04s-2.27-5.04-5.04-5.04-5.04,2.27-5.04,5.04,2.27,5.04,5.04,5.04Z"/>
      <line class="cls-12" x1="47.32" y1="304.74" x2="56.27" y2="302.74"/>
      <line class="cls-4" x1="47.32" y1="298.65" x2="56.27" y2="300.65"/>
      <line class="cls-4" x1="47.32" y1="303.04" x2="47.32" y2="300.35"/>
      <rect class="cls-12" x="26.96" y="309.26" width="8.4" height="15.12"/>
      <circle class="cls-7" cx="31.16" cy="316.82" r=".84"/>
      <line class="cls-12" x1="32.84" y1="322.29" x2="29.48" y2="318.92"/>
      <line class="cls-10" x1="32.84" y1="314.72" x2="29.48" y2="311.36"/>
      <rect class="cls-12" x="35.37" y="309.26" width="15.13" height="15.13"/>
      <path class="cls-6" d="M42.93,321.87c2.78,0,5.04-2.27,5.04-5.04s-2.27-5.04-5.04-5.04-5.04,2.27-5.04,5.04,2.27,5.04,5.04,5.04Z"/>
      <line class="cls-12" x1="46.95" y1="319.87" x2="38" y2="317.87"/>
      <line class="cls-12" x1="46.95" y1="313.78" x2="38" y2="315.78"/>
      <line class="cls-12" x1="46.95" y1="318.17" x2="46.95" y2="315.48"/>
      <rect class="cls-12" x="50.49" y="309.26" width="8.4" height="15.13"/>
      <line class="cls-17" x1="81.66" y1="281.41" x2="31.8" y2="281.41"/>
      <polyline class="cls-22" points="86.19 281.41 93.31 281.41 97.84 281.41 254.02 281.41 264.33 281.41"/>
      <path class="cls-35" d="M138.44,121.7c-.21,.12-.37,.08-.63,.08-6.71-.06-13.67,0-20.38,0v1.32h19.76c.23,0,.47,0,.7,0,.38,0,.36-.04,.56,.08v.92s-21.11,0-21.11,0v1.42h21.1v.94h-21.1v1.42s21.09,0,21.09,0l.02,.92c-.22,.13-.37,.08-.65,.08-6.69-.06-13.68,0-20.38,0v1.32h10.51c.3,0,10.16-.12,10.5,.07v.91s-21.09,0-21.09,0v1.42h21.16l-.06,.94h-21.08l-.16,1.42h21.22c.01,.97,.14,1.18-.17,1.44-1.12,.91,.14,1.4,.18,1.64v1.25l.4,.02v-1.26c.13-.37,.61-.24,.61-.93,0-.68-.49-.55-.61-.93v-1.2s1.34-.02,1.34-.02v-1.41s-1.34,0-1.34,0v-.91s1.31-.02,1.31-.02v-1.37l-1.34-.05c-.02-.32-.06-.68,.05-.98h1.29v-1.37l-1.34-.02v-.99s1.34,0,1.34,0v-1.38s-1.31,0-1.31,0v-.91l1.3-.02v-1.37s-1.32-.04-1.32-.04c-.04-.31-.06-.67,.03-.98h1.3v-1.37h-1.29s-.06-.33-.06-.33l-.34,.04-.02,.24Z"/>
      <path class="cls-37" d="M235.66,123.71c.15,.32,.1,.76,.28,1.15,.19,.43,.44,.55,.66,.83,.43,.56,.8,1.37,.58,2.33-.31,1.4-1.84,2.6-3.59,1.92-1.27-.5-2.31-2.22-1.33-3.85,.36-.6,.99-.91,1.1-1.82,.08-.74,.11-.63,.88-.62,.42,0,1.1-.04,1.43,.06Z"/>
      <path class="cls-42" d="M233.74,124h1.65c.17,.89,.21,1.12,.71,1.68,.37,.41,.75,.77,.8,1.6,.09,1.38-1.01,2.5-2.34,2.5-1.32,0-2.4-1.11-2.32-2.49,.02-.33,.12-.65,.25-.91,.19-.39,.32-.44,.55-.68,.4-.43,.58-.91,.7-1.7Z"/>
      <path class="cls-37" d="M232.85,127.54c.59,.02,.09,.42,.73,1.04,.6,.58,1.12,.12,1.11,.65-.7,.42-2.1-.88-1.84-1.7Z"/>
      <path class="cls-37" d="M233.49,123.25c.24-.16,1.98-.13,2.16,.01,0,.29-.06,.25-.37,.26-.7,0-1.89,.15-1.78-.27Z"/>
      <path class="cls-37" d="M235.08,122.63c.4,0,.47-.07,.46,.31-.18,.04-1.72,.08-1.86,0-.51-.28,.33-.31,1.4-.32Z"/>
      <path class="cls-37" d="M235.27,122.48h-1.42c.17-.47,1.08-.32,1.19-.28,.22,.07,.2,.11,.23,.28Z"/>
      <path class="cls-37" d="M235.66,79.62c.15,.32,.1,.76,.28,1.15,.19,.43,.44,.55,.66,.83,.43,.56,.8,1.37,.58,2.33-.31,1.4-1.84,2.6-3.59,1.92-1.27-.5-2.31-2.22-1.33-3.85,.36-.6,.99-.91,1.1-1.82,.08-.74,.11-.63,.88-.62,.42,0,1.1-.04,1.43,.06Z"/>
      <path class="cls-42" d="M233.74,79.91h1.65c.17,.89,.21,1.12,.71,1.68,.37,.41,.75,.77,.8,1.6,.09,1.38-1.01,2.5-2.34,2.5-1.32,0-2.4-1.11-2.32-2.49,.02-.33,.12-.65,.25-.91,.19-.39,.32-.44,.55-.68,.4-.43,.58-.91,.7-1.7Z"/>
      <path class="cls-37" d="M232.85,83.45c.59,.02,.09,.42,.73,1.04,.6,.58,1.12,.12,1.11,.65-.7,.42-2.1-.88-1.84-1.7Z"/>
      <path class="cls-37" d="M233.49,79.16c.24-.16,1.98-.13,2.16,.01,0,.29-.06,.25-.37,.26-.7,0-1.89,.15-1.78-.27Z"/>
      <path class="cls-37" d="M235.08,78.54c.4,0,.47-.07,.46,.31-.18,.04-1.72,.08-1.86,0-.51-.28,.33-.31,1.4-.32Z"/>
      <path class="cls-37" d="M235.27,78.38h-1.42c.17-.47,1.08-.32,1.19-.28,.22,.07,.2,.11,.23,.28Z"/>
      <path class="cls-37" d="M181.93,35.85c.15,.32,.1,.76,.28,1.15,.19,.43,.44,.55,.66,.83,.43,.56,.8,1.37,.58,2.33-.31,1.4-1.84,2.6-3.59,1.92-1.27-.5-2.31-2.22-1.33-3.85,.36-.6,.99-.91,1.1-1.82,.09-.74,.11-.63,.87-.62,.42,0,1.1-.04,1.43,.06Z"/>
      <path class="cls-42" d="M180.01,36.14h1.65c.17,.89,.21,1.12,.71,1.68,.37,.41,.75,.77,.8,1.6,.09,1.38-1.01,2.5-2.34,2.5-1.32,0-2.4-1.11-2.32-2.49,.02-.33,.12-.65,.25-.91,.19-.39,.32-.44,.55-.68,.4-.43,.58-.91,.7-1.7Z"/>
      <path class="cls-37" d="M179.12,39.68c.59,.02,.09,.42,.73,1.04,.6,.58,1.12,.12,1.11,.65-.7,.42-2.1-.88-1.84-1.7Z"/>
      <path class="cls-37" d="M179.76,35.38c.24-.16,1.98-.13,2.16,0,0,.29-.06,.25-.37,.26-.7,0-1.89,.15-1.78-.27Z"/>
      <path class="cls-37" d="M181.34,34.77c.4,0,.47-.07,.46,.31-.18,.04-1.72,.08-1.86,0-.51-.28,.33-.31,1.4-.32Z"/>
      <path class="cls-37" d="M181.54,34.61h-1.42c.17-.47,1.08-.31,1.19-.28,.22,.07,.2,.11,.23,.28Z"/>
      <text class="cls-47" transform="translate(321.48 327.74) scale(1.48 1)"><tspan x="0" y="0">MONKI</tspan></text>
      <g>
        <line class="cls-20" x1="157.86" y1="67.34" x2="157.86" y2="64.55"/>
        <polyline class="cls-13" points="157.86 67.34 162.52 64.55 162.52 67.34 157.86 64.55"/>
      </g>
      <g>
        <line class="cls-20" x1="157.86" y1="71.46" x2="157.86" y2="68.66"/>
        <polyline class="cls-13" points="157.86 71.46 162.52 68.66 162.52 71.46 157.86 68.66"/>
      </g>
      <g>
        <line class="cls-20" x1="157.86" y1="117.08" x2="157.86" y2="114.28"/>
        <polyline class="cls-13" points="157.86 117.08 162.52 114.28 162.52 117.08 157.86 114.28"/>
      </g>
      <g>
        <line class="cls-20" x1="157.86" y1="112.97" x2="157.86" y2="110.17"/>
        <polyline class="cls-13" points="157.86 112.97 162.52 110.17 162.52 112.97 157.86 110.17"/>
      </g>
      <g>
        <line class="cls-20" x1="157.86" y1="158.03" x2="157.86" y2="155.24"/>
        <polyline class="cls-13" points="157.86 158.03 162.52 155.24 162.52 158.03 157.86 155.24"/>
      </g>
      <g>
        <line class="cls-20" x1="157.86" y1="153.92" x2="157.86" y2="151.13"/>
        <polyline class="cls-13" points="157.86 153.92 162.52 151.13 162.52 153.92 157.86 151.13"/>
      </g>
      <g>
        <line class="cls-20" x1="157.86" y1="193.94" x2="157.86" y2="191.14"/>
        <polyline class="cls-13" points="157.86 193.94 162.52 191.14 162.52 193.94 157.86 191.14"/>
      </g>
      <g>
        <line class="cls-20" x1="157.86" y1="198.05" x2="157.86" y2="195.25"/>
        <polyline class="cls-13" points="157.86 198.05 162.52 195.25 162.52 198.05 157.86 195.25"/>
      </g>
      <g>
        <path class="cls-6" d="M215.43,314.28c1.7,0,3.07,1.37,3.07,3.07s-1.37,3.07-3.07,3.07-3.07-1.37-3.07-3.07"/>
        <line class="cls-12" x1="212.36" y1="317.35" x2="209.07" y2="317.35"/>
        <line class="cls-12" x1="215.43" y1="314.28" x2="209.07" y2="314.28"/>
        <line class="cls-12" x1="209.07" y1="317.35" x2="209.07" y2="314.28"/>
      </g>
      <rect class="cls-7" x="172.65" y="324.57" width="39.27" height="2.51"/>
      <g>
        <g>
          <g>
            <line class="cls-12" x1="146.94" y1="307.25" x2="151.73" y2="307.25"/>
            <polyline class="cls-6" points="146.94 307.25 151.73 299.26 146.94 299.26 151.73 307.25"/>
          </g>
          <polyline class="cls-6" points="153.33 303.25 153.33 305.65 149.34 303.25 153.33 300.86"/>
          <line class="cls-12" x1="153.33" y1="303.25" x2="153.33" y2="300.86"/>
        </g>
        <polygon class="cls-29" points="153.33 300.86 149.34 303.25 153.33 305.65 153.33 303.25 153.33 300.86"/>
      </g>
      <g>
        <g>
          <g>
            <line class="cls-12" x1="118.7" y1="307.25" x2="123.49" y2="307.25"/>
            <polyline class="cls-6" points="118.7 307.25 123.49 299.26 118.7 299.26 123.49 307.25"/>
          </g>
          <polyline class="cls-6" points="125.09 303.25 125.09 305.65 121.09 303.25 125.09 300.86"/>
          <line class="cls-12" x1="125.09" y1="303.25" x2="125.09" y2="300.86"/>
        </g>
        <polygon class="cls-29" points="125.09 303.25 125.09 300.86 121.1 303.25 125.09 305.65 125.09 303.25"/>
      </g>
      <path class="cls-6" d="M121.09,286.98c2.29,0,4.15,1.86,4.15,4.15s-1.86,4.15-4.15,4.15-4.15-1.86-4.15-4.15,1.86-4.15,4.15-4.15h0Zm4.15,4.15l-4.15-4.15-4.15,4.15"/>
      <path class="cls-6" d="M149.34,286.98c2.29,0,4.15,1.86,4.15,4.15s-1.86,4.15-4.15,4.15-4.15-1.86-4.15-4.15,1.86-4.15,4.15-4.15h0Zm4.15,4.15l-4.15-4.15-4.15,4.15"/>
      <line class="cls-17" x1="242.95" y1="294.07" x2="209.07" y2="294.07"/>
      <line class="cls-17" x1="246.15" y1="286.08" x2="114.74" y2="286.08"/>
      <line class="cls-17" x1="247.78" y1="317.35" x2="218.5" y2="317.35"/>
      <line class="cls-17" x1="246.15" y1="286.11" x2="246.15" y2="301.5"/>
      <line class="cls-17" x1="114.74" y1="286.08" x2="114.74" y2="303.26"/>
      <line class="cls-17" x1="114.74" y1="303.26" x2="121.1" y2="303.26"/>
      <line class="cls-17" x1="114.74" y1="291.34" x2="116.95" y2="291.34"/>
      <line class="cls-17" x1="142.97" y1="286.08" x2="142.97" y2="303.26"/>
      <line class="cls-17" x1="142.97" y1="291.34" x2="145.19" y2="291.34"/>
      <line class="cls-17" x1="142.97" y1="303.26" x2="149.33" y2="303.26"/>
      <g>
        <rect class="cls-46" x="176.44" y="56.16" width="24.71" height="16.78"/>
        <rect class="cls-46" x="177.74" y="57.91" width=".9" height="13.28"/>
        <rect class="cls-46" x="179.66" y="57.91" width=".9" height="13.28"/>
        <rect class="cls-46" x="181.59" y="57.91" width=".9" height="13.28"/>
        <rect class="cls-46" x="183.52" y="57.91" width=".9" height="13.28"/>
        <rect class="cls-46" x="185.45" y="57.91" width=".9" height="13.28"/>
        <rect class="cls-46" x="187.38" y="57.91" width=".9" height="13.28"/>
        <rect class="cls-46" x="189.3" y="57.91" width=".9" height="13.28"/>
        <rect class="cls-46" x="191.23" y="57.91" width=".9" height="13.28"/>
        <rect class="cls-46" x="193.16" y="57.91" width=".9" height="13.28"/>
        <rect class="cls-46" x="195.09" y="57.91" width=".9" height="13.28"/>
        <rect class="cls-46" x="197.01" y="57.91" width=".9" height="13.28"/>
        <rect class="cls-46" x="198.94" y="57.91" width=".9" height="13.28"/>
        <circle class="cls-46" cx="203.28" cy="58.7" r="1.27"/>
        <path class="cls-46" d="M202.81,59.27c-.17-.14-.27-.34-.27-.57,0-.41,.33-.74,.74-.74s.74,.33,.74,.74c0,.23-.11,.44-.27,.57"/>
        <rect class="cls-46" x="175.98" y="57.98" width=".46" height="1.43"/>
        <rect class="cls-46" x="175.98" y="69.69" width=".46" height="1.43"/>
        <polyline class="cls-46" points="202.21 59.41 201.14 59.41 201.14 57.98 202.21 57.98"/>
      </g>
      <polyline class="cls-44" points="162.47 66.09 172.82 66.09 172.82 58.61 176.21 58.7"/>
      <g>
        <line class="cls-49" x1="176.61" y1="70.4" x2="162.47" y2="70.4"/>
        <line class="cls-44" x1="176.61" y1="70.4" x2="162.47" y2="70.4"/>
      </g>
      <line class="cls-30" x1="149.34" y1="65.39" x2="149.34" y2="286.43"/>
      <line class="cls-28" x1="155" y1="316.9" x2="155" y2="69.5"/>
      <line class="cls-45" x1="149.29" y1="66.02" x2="157.82" y2="66.02"/>
      <line class="cls-45" x1="149.29" y1="111.65" x2="157.82" y2="111.65"/>
      <line class="cls-45" x1="149.29" y1="152.6" x2="157.82" y2="152.6"/>
      <line class="cls-45" x1="149.29" y1="192.62" x2="157.82" y2="192.62"/>
      <line class="cls-45" x1="162.48" y1="111.65" x2="171.09" y2="111.65"/>
      <line class="cls-25" x1="157.86" y1="69.81" x2="155" y2="69.81"/>
      <line class="cls-28" x1="157.86" y1="115.43" x2="155" y2="115.43"/>
      <line class="cls-28" x1="157.86" y1="156.38" x2="153.33" y2="156.38"/>
      <line class="cls-28" x1="157.86" y1="196.4" x2="155" y2="196.4"/>
      <line class="cls-30" x1="121.1" y1="313.89" x2="175.5" y2="313.89"/>
      <rect class="cls-19" x="175.5" y="290.14" width="33.57" height="34.37"/>
      <line class="cls-30" x1="149.34" y1="313.66" x2="149.34" y2="307.19"/>
      <line class="cls-30" x1="149.34" y1="295.21" x2="149.34" y2="299.19"/>
      <line class="cls-30" x1="121.09" y1="286.92" x2="121.09" y2="277.2"/>
      <line class="cls-30" x1="121.09" y1="277.2" x2="42.05" y2="277.2"/>
      <line class="cls-30" x1="42.05" y1="277.2" x2="42.05" y2="293.85"/>
      <line class="cls-30" x1="121.09" y1="313.8" x2="121.09" y2="307.33"/>
      <line class="cls-30" x1="121.09" y1="295.36" x2="121.09" y2="299.34"/>
      <line class="cls-28" x1="126.42" y1="317.45" x2="175.5" y2="317.45"/>
      <line class="cls-28" x1="126.42" y1="317.45" x2="126.42" y2="274.19"/>
      <line class="cls-28" x1="126.42" y1="274.19" x2="38.32" y2="274.19"/>
      <line class="cls-21" x1="38.32" y1="294.07" x2="38.32" y2="274.19"/>
    </g>
  </g>
</svg>