<?xml version="1.0" encoding="UTF-8"?>
<svg id="Ebene_2" data-name="Ebene 2" xmlns="http://www.w3.org/2000/svg" viewBox="0 0 371.5 371.5">
  <defs>
    <style>
      .cls-1 {
        fill: none;
        stroke: #505050;
        stroke-linecap: round;
        stroke-linejoin: round;
        stroke-width: 16.5px;
      }
    </style>
  </defs>
  <g id="Layer">
    <g>
      <g>
        <g>
          <path class="cls-1" d="M77.71,248.1V39.12c0-17.05,13.82-30.87,30.87-30.87,17.05,0,30.87,13.82,30.87,30.87V248.1c18.44,10.68,30.87,30.57,30.87,53.41,0,34.1-27.64,61.74-61.74,61.74s-61.74-27.64-61.74-61.74c0-22.84,12.43-42.73,30.87-53.41Z"/>
          <g>
            <line class="cls-1" x1="47.8" y1="52" x2="8.25" y2="52"/>
            <line class="cls-1" x1="47.8" y1="90.59" x2="28.25" y2="90.59"/>
            <line class="cls-1" x1="47.8" y1="129.18" x2="8.25" y2="129.18"/>
            <line class="cls-1" x1="47.8" y1="167.76" x2="28.25" y2="167.76"/>
            <line class="cls-1" x1="47.8" y1="206.35" x2="8.25" y2="206.35"/>
          </g>
          <line class="cls-1" x1="108.58" y1="98.26" x2="108.58" y2="274.01"/>
        </g>
        <path class="cls-1" d="M86.87,284.63c-3.63,4.66-5.79,10.52-5.79,16.89,0,15.19,12.31,27.5,27.5,27.5s27.5-12.31,27.5-27.5-12.31-27.5-27.5-27.5"/>
      </g>
      <g>
        <g>
          <line class="cls-1" x1="270.75" y1="185.75" x2="270.75" y2="93.25"/>
          <polyline class="cls-1" points="245.74 108.81 270.97 134.04 296.2 108.81"/>
          <line class="cls-1" x1="270.75" y1="185.75" x2="270.75" y2="278.25"/>
          <polyline class="cls-1" points="295.76 262.69 270.53 237.46 245.3 262.69"/>
        </g>
        <g>
          <line class="cls-1" x1="270.75" y1="185.75" x2="178.25" y2="185.75"/>
          <polyline class="cls-1" points="193.81 210.76 219.04 185.53 193.81 160.3"/>
          <line class="cls-1" x1="270.75" y1="185.75" x2="363.25" y2="185.75"/>
          <polyline class="cls-1" points="347.69 160.74 322.46 185.97 347.69 211.2"/>
        </g>
        <line class="cls-1" x1="219.04" y1="237.46" x2="322.46" y2="134.04"/>
        <line class="cls-1" x1="219.04" y1="134.04" x2="322.46" y2="237.46"/>
      </g>
    </g>
  </g>
</svg>