<?xml version="1.0" encoding="UTF-8"?>
<svg id="Ebene_2" data-name="Ebene 2" xmlns="http://www.w3.org/2000/svg" viewBox="0 0 41.29 41.16">
  <defs>
    <style>
      .cls-1 {
        fill: #c51f23;
      }

      .cls-1, .cls-2, .cls-3, .cls-4, .cls-5 {
        fill-rule: evenodd;
      }

      .cls-2 {
        fill: #282828;
      }

      .cls-3 {
        fill: #e7eaee;
      }

      .cls-4 {
        fill: #a33384;
      }

      .cls-5 {
        fill: #de5f23;
      }
    </style>
  </defs>
  <g id="Ebene_1-2" data-name="Ebene 1">
    <g>
      <path class="cls-2" d="M22.79,9.37l.2,2.84,1.83,.81c1.46-.91,.59-1.13,2.13-1.71,1.25,.81,1.56,1.65,2.97,2.61-.34,1.26-1.02,1.64-1.69,2.51l.64,1.7,2.95,.29-.05,4.28c-2.69,.51-2.93-.63-3.59,2.23,.61,.78,1.12,.98,1.71,1.69-.25,1.26-1.87,2.57-2.74,3.22-1-.3-1.56-1.02-2.33-1.66l-1.84,.62-.23,2.9c-2.08,.2-2.06,.14-4.2,.07l-.34-2.99-1.82-.63c-.83,.63-1.28,1.34-2.33,1.69-.97-.65-2.53-1.87-2.76-3.25,.44-.54,1.21-1.12,1.71-1.69-.7-2.79-.95-1.7-3.53-2.2-.27-2.29-.2-1.92-.14-4.29l2.97-.25,.7-1.73-1.75-2.08,2.93-3.14c1.57,.71,1,1,2.19,1.74l1.82-.68,.24-2.79,4.32-.12Z"/>
      <path class="cls-3" d="M21.75,13.19c1.46,.37,2.09,1.06,3.75,1.13l1.43-1.46,1.44,1.39c-.74,1.07-.81,.99-1.56,1.86l1.3,3.32c1.07,.06,1.67-.07,2.51,.29l.07,1.91-2.36,.04c-.64,.86-1.29,2.18-1.48,3.47l1.52,1.76c-.71,1.03-.56,.9-1.4,1.35-2.83-1.54-.32-2.33-5.18-.19l-.12,2.34-2.06,.11-.11-2.37-3.34-1.47c-.96,.92-.89,1.25-2.28,1.6-.38-.57-.61-.73-.99-1.29l1.55-1.82c-.87-4.39-2.15-3.51-3.87-3.54l.03-1.92c.86-.36,1.45-.23,2.54-.3l1.35-3.29c-.8-.89-1.08-.94-1.61-1.79l1.36-1.53,1.52,1.45c1.56-.04,2.32-.72,3.71-1.11l.14-2.53,1.91-.07,.22,2.62Z"/>
      <path class="cls-2" d="M22.25,16.15c1.67,.61,1.97,.55,2.74,2.24,1.76,3.86-1.71,8.24-6.1,6.7-5.5-1.94-3.15-11.33,3.36-8.94Z"/>
      <path class="cls-4" d="M7.35,4.03c2.43,.01,7.29-.43,9.2,.21,.2,.6,.34,3.52,.23,4.38-.2,1.65,.19,.81-.67,1.12-1.07-.02-.56-2.12-.61-4.46l-8.21-.03c-.88,3.25-5.3,2.6-5.34-.58-.04-3.11,4.2-4.05,5.4-.64Z"/>
      <path class="cls-3" d="M21.86,17.21c4.03,1.51,2.42,8.2-2.47,6.76-4.38-1.29-2.19-8.5,2.47-6.76Z"/>
      <path class="cls-1" d="M37.19,7.29c.04,10.17,.83,9.39-3.01,9.42-.32,0-1.3,.04-1.53,.02-1.71-.18-.8,.21-1.19-.61,.16-.38-.21-.67,1.8-.68,.9,0,1.74,.04,2.66,0l.06-8.12c-3.36-1.19-2.55-5.38,.63-5.37,3.22,.01,3.83,4.29,.59,5.35Z"/>
      <path class="cls-1" d="M25.85,35.84h7.93c3.78-5.55,7.48,1.12,4.15,3.02-2.41,1.38-3.84-1.28-3.84-1.28-.98-.94-4.75-.48-7.74-.49-1.81,0-2.11,.61-1.9-4.14,.09-1.97-.22-1.16,.7-1.57,1.17,.64,.22,2.08,.71,4.46Z"/>
      <path class="cls-5" d="M9.78,25.15c-.58,.98-1.69,.39-4.51,.53v7.6c.57,1.39,2.17,1.27,2.1,3.3-.12,3.45-5.32,3.38-5.42,0-.06-1.97,1.53-1.93,2.1-3.3l.02-8.62c.77-.25,3.66-.41,4.54-.29,2.05,.27,.54-.25,1.16,.78Z"/>
      <path class="cls-5" d="M35.39,25.64c-2.45,0-3.37,.42-3.94-.48,.67-1.94,2.79-.14,4.24-.77,.92-.94,.97-2.12,3-2.04,3.32,.13,3.61,5.28-.02,5.39-2.45,.08-1.99-1.46-3.28-2.1Z"/>
      <path class="cls-5" d="M25.74,5.58c-.07,2.2,.45,4.13-.59,4.16-1.15,.03-.6-1.8-.68-4.16-.96-.89-2.12-1.24-2.07-3,.09-3.33,4.99-3.45,5.4-.25,.24,1.87-1.04,2.33-2.05,3.25Z"/>
      <path class="cls-1" d="M5.87,15.47c3.36,0,3.46-.48,3.91,.65-.39,.84,.11,.55-1.46,.61-.71,.03-1.69-.04-2.45-.04-1.33,.6-1.3,2.21-3.29,2.1-3.52-.2-3.35-5.31-.01-5.41,2.13-.06,1.94,1.52,3.3,2.09Z"/>
      <path class="cls-4" d="M16.74,35.77c3.67,1.43,2.15,5.4-.63,5.39-3.24-.01-3.82-4.4-.57-5.32l.02-3.73c.27-.84-.23-.33,.55-.73,.83,.39,.31-.15,.59,.73l.05,3.66Z"/>
      <path class="cls-3" d="M5.35,3.33c1.68,.89,.64,3.58-1.41,2.69-1.61-.7-.51-3.7,1.41-2.69Z"/>
      <path class="cls-3" d="M37.24,3.35c1.75,.94,.58,3.53-1.34,2.63-1.74-.82-.49-3.6,1.34-2.63Z"/>
      <path class="cls-3" d="M24.26,4.01c-1.34-1.84-.1-3.58,1.66-2.57,1.12,.64,1.11,3.12-1.66,2.57Z"/>
      <path class="cls-3" d="M17.42,37.35l.19,1.65c-1.73,1.78-3.32,1.01-2.77-1.6,.72-.33,1.82-.61,2.57-.04Z"/>
      <path class="cls-3" d="M1.41,17.01c-.75-2.92,2.01-2.83,2.59-1.67,.85,1.7-.85,2.82-2.59,1.67Z"/>
      <path class="cls-3" d="M39.75,23.83l.36,1.61c-1.65,2.1-3.52,.78-2.74-1.62,.68-.18,1.74-.42,2.38,0Z"/>
      <path class="cls-3" d="M37.41,35.44c1.76,1.38-.36,3.1-1.64,2.3-1.52-.94-.21-3.76,1.64-2.3Z"/>
      <path class="cls-3" d="M5.61,37.77l-1.89,.12c-2.25-3.75,4.17-3.62,1.89-.12Z"/>
    </g>
  </g>
</svg>