<?xml version="1.0" encoding="UTF-8"?>
<svg id="Ebene_2" data-name="Ebene 2" xmlns="http://www.w3.org/2000/svg" viewBox="0 0 371.5 281.96">
  <defs>
    <style>
      .cls-1 {
        fill: none;
        stroke: #505050;
        stroke-linecap: round;
        stroke-linejoin: round;
        stroke-width: 16.5px;
      }
    </style>
  </defs>
  <g id="Layer">
    <g>
      <path class="cls-1" d="M186.64,224.1c-11.37,0-20.58,9.21-20.58,20.58,0,16.03,15.94,29.02,31.97,29.02,22.6,0,37.97-18.32,37.97-40.92,0-31.86-22.69-65.45-80.88-65.45H83.13"/>
      <path class="cls-1" d="M313.9,74.04c-11.37,0-20.58-9.21-20.58-20.58,0-16.03,12.99-29.02,29.02-29.02,22.6,0,40.92,18.32,40.92,40.92,0,31.86-23.94,60.53-71.15,60.53H18"/>
      <path class="cls-1" d="M168.61,33.65c0-14.54,13.44-24.99,25.39-25.39,16.85-.57,33.45,13.04,34.02,29.89,.8,23.76-16.01,46.27-54.58,46.27h-37.81"/>
      <line class="cls-1" x1="101.77" y1="84.43" x2="102.62" y2="84.43"/>
      <line class="cls-1" x1="49.28" y1="167.34" x2="41.24" y2="167.34"/>
      <line class="cls-1" x1="8.25" y1="167.34" x2="8.25" y2="167.34"/>
    </g>
  </g>
</svg>