<?xml version="1.0" encoding="UTF-8"?>
<svg id="Ebene_2" data-name="Ebene 2" xmlns="http://www.w3.org/2000/svg" viewBox="0 0 371.5 371.5">
  <defs>
    <style>
      .cls-1 {
        fill: none;
        stroke: #505050;
        stroke-linecap: round;
        stroke-linejoin: round;
        stroke-width: 16.5px;
      }
    </style>
  </defs>
  <g id="Layer">
    <g>
      <path class="cls-1" d="M186.07,8.25c-7.03,35.56-46.86,57.94-46.98,94.83-.09,24.96,20.03,45.07,46.51,45.15,26.48,.09,46.73-19.88,46.81-44.84,.12-36.89-39.55-59.54-46.34-95.15Z"/>
      <path class="cls-1" d="M288.77,138.25c-11.3,57.16-75.32,93.13-75.51,152.42-.14,40.12,32.19,72.43,74.76,72.57,42.56,.14,75.11-31.95,75.24-72.07,.2-59.29-63.57-95.69-74.48-152.93Z"/>
      <path class="cls-1" d="M52.49,106.73c-6.62,33.49-44.13,54.56-44.24,89.3-.08,23.51,18.86,42.44,43.8,42.52,24.94,.08,44-18.72,44.08-42.22,.12-34.74-37.24-56.06-43.64-89.6Z"/>
    </g>
  </g>
</svg>