<?xml version="1.0" encoding="UTF-8"?>
<svg id="Ebene_2" data-name="Ebene 2" xmlns="http://www.w3.org/2000/svg" viewBox="0 0 4000 724.28">
  <g id="_Ńëîé_1" data-name="Ńëîé 1">
    <path d="m3809.1,440.47l-7.53-2.09c-38.32-10.68-77.94-21.73-115.04-8.11-23.39,8.59-41.98,26.02-59.96,42.88-19.35,18.14-37.63,35.29-61.51,42.63-42.99,13.23-82.8-9.58-124.94-33.73-28.9-16.56-58.79-33.69-90.7-39.16-60.65-10.42-115.61,22.23-168.77,53.8-46.06,27.35-93.69,55.63-145.4,56.73-45.87.96-90.73-19.56-134.15-39.41-54.74-25.02-111.34-50.9-168.04-31.23-28.48,9.89-52.12,30.26-74.99,49.97-28.19,24.28-54.81,47.21-89.46,51.9-42.78,5.78-79.77-17.86-118.96-42.89-15.27-9.76-31.06-19.84-47.04-27.85-52.97-26.56-118.14-32.16-178.81-15.34-11.42,3.16-22.38,7.01-32.84,11.5V251.96c0-8.88-7.23-16.11-16.11-16.11h-74.16c-8.88,0-16.11,7.23-16.11,16.11v239.77c0,52.87-21.64,92.13-47.22,110.62v-222.84c0-8.89-7.23-16.11-16.11-16.11h-74.15c-8.88,0-16.11,7.22-16.11,16.11v194.37c0,15.29,6.34,28.03,18.33,36.85,17.45,12.82,44.81,15.63,71.4,7.31,3.4-1.07,6.81-2.48,10.2-4.21v94.34c0,5.33-4.34,9.67-9.67,9.67h-74.15c-5.33,0-9.67-4.34-9.67-9.67v-54.14c0-24.94-10.66-33.83-20.64-33.83-11.66,0-24.35,7.56-31.67,14.04-.45.4-.9.79-1.35,1.18v-128.37c0-8.88-7.23-16.11-16.11-16.11h-74.16c-8.88,0-16.11,7.23-16.11,16.11,0,15.49-.19,30.66-.37,45.32-.19,14.69-.38,29.88-.38,45.41,0,5.75.5,16.98,1.83,22.62,2.2,9.3,6.05,17.64,12.88,27.88,7.35,11.03,17.72,18.4,28.44,20.22,10.02,1.7,19.76-1.23,27.14-3.97,10.83-4.02,21-9.36,30.39-15.94v59.58c0,5.33-4.33,9.67-9.66,9.67h-74.16c-5.33,0-9.66-4.34-9.66-9.67s.1-12.59.9-19.84c.45-4.17,1.32-18.51-6.7-27.67-5.85-6.68-15.66-9.73-26.94-8.39-7.37.88-14.44,3.38-20.93,6.26v-23.94c0-8.88-7.23-16.1-16.11-16.1h-29.44c-2.12,0-4.59-.16-7.2-.31-12.58-.76-31.56-1.92-34.88,15.04-1.44,7.4.91,14.64,3.11,20.12,4.69,11.64,10.73,19.52,18.47,24.09,8.58,5.07,19.89,6.19,31.87,3.15,9.04-2.3,17.37-6.53,25.43-10.63l2.31-1.17v39.39c0,5.33-4.34,9.67-9.67,9.67h-74.15c-5.33,0-9.67-4.34-9.67-9.67v-73.58c0-25.33,10.52-47.81,29.6-63.29,7.27-5.89,15.73-10.58,23.91-15.11,7.02-3.89,14.29-7.92,20.96-12.76,19.05-13.84,33.25-34.87,38.96-57.7,2.98-11.9,3.21-22.64.69-31.91-.4-1.49-.88-2.95-1.43-4.36,66.06-24.63,126.21-59.47,176.62-102.59,20.45-17.5,40.25-34.83,57.6-54.34l2.31-2.59c17-19.13,34.59-38.9,49.3-60.47,1.97-2.88,3.98-5.76,5.99-8.65,5.28-7.57,10.74-15.4,15.55-23.43,4.54-7.59,13.46-22.67,18.11-30.56.84-1.41,2.59-1.97,4.1-1.28l42.55,19.27c3.34,1.51,7.2,1.02,10.05-1.29,2.87-2.3,4.16-5.96,3.39-9.55l-35.8-166.34c-.65-3.03-2.64-5.49-5.46-6.77-2.81-1.28-5.99-1.15-8.69.36l-148.63,82.82c-3.21,1.79-5.1,5.17-4.95,8.84.15,3.67,2.32,6.89,5.65,8.4.29.13,29.78,13.74,42.35,19.34,1.58.7,2.31,2.51,1.67,4.11l-5.56,13.95c-49.29,123.02-153.3,259.11-297.42,272.13-22.49,2.04-46.79,1.91-72.23-.38-26.74-2.4-53.85-6.67-80.08-10.79-46.14-7.25-93.84-14.75-141.35-12.45-73.06,3.56-142.45,29.82-206.56,57.66-29.61,12.86-58.96,27.39-87.35,41.44-64.3,31.82-130.79,64.72-203.33,79.55-105.55,21.57-213.03,14.32-310.82-21-19.12-6.9-38.33-14.99-56.92-22.82-44.75-18.85-91.02-38.34-140.11-43.04-64.04-6.16-133.39,12.02-218.3,57.15-21.09,11.21-42.14,23.36-62.49,35.12-29.89,17.27-60.47,34.93-92.12,50.11v7.14c32.85-15.57,64.46-33.83,95.34-51.67,20.3-11.73,41.3-23.86,62.29-35.01,83.74-44.51,151.94-62.44,214.66-56.43,48.12,4.61,93.93,23.91,138.23,42.57,18.66,7.86,37.96,15.98,57.23,22.94,98.91,35.72,207.59,43.07,314.3,21.25,73.36-14.99,140.23-48.08,204.89-80.09,28.32-14.02,57.6-28.51,87.06-41.3,63.55-27.6,132.29-53.63,204.31-57.13,46.84-2.3,94.23,5.17,140.04,12.38,26.33,4.14,53.55,8.42,80.5,10.84,25.82,2.32,50.52,2.46,73.38.38,147.03-13.28,252.83-151.36,302.83-276.15l5.57-13.97c1.92-4.82-.29-10.26-5.03-12.38-12.54-5.58-41.99-19.17-42.3-19.31-1.13-.52-1.84-1.56-1.89-2.8-.06-1.25.56-2.35,1.65-2.95l148.62-82.82c.9-.51,1.96-.55,2.9-.12.94.42,1.61,1.25,1.82,2.25l35.8,166.34c.26,1.22-.16,2.41-1.13,3.19-.97.77-2.21.94-3.35.43l-42.55-19.28c-4.51-2.04-9.8-.37-12.31,3.89-4.65,7.88-13.56,22.95-18.09,30.52-4.69,7.84-10.09,15.58-15.31,23.06-2.02,2.9-4.04,5.79-6.03,8.7-14.47,21.22-31.92,40.84-48.79,59.82l-2.3,2.59c-17.08,19.21-36.7,36.37-56.98,53.72-49.97,42.75-109.66,77.29-175.24,101.66-3.94-6.76-9.65-12.03-16.33-14.84-12.98-5.46-27.94,1.87-39.96,7.76-2.97,1.45-5.77,2.83-8.37,3.93-27.67,11.83-51.07,20.24-73.64,26.5l-5.27,1.45c-4.14,1.14-6.56,5.02-5.74,9.24.81,4.23,4.56,6.96,8.78,6.44l.92-.1c26.62-3.08,50.78-7.41,73.86-13.22,21.31-5.37,42.18-11.76,62.51-19.11.49,1.24.91,2.51,1.27,3.83,2.22,8.19,1.97,17.83-.73,28.65-5.35,21.39-18.65,41.09-36.49,54.05-6.36,4.62-13.45,8.54-20.31,12.35-8.42,4.66-17.13,9.49-24.83,15.74-20.63,16.72-31.99,40.98-31.99,68.29v73.58c0,8.89,7.23,16.11,16.11,16.11h74.15c8.88,0,16.11-7.22,16.11-16.11v-42.56c6.86-3.23,14.09-6.04,21.7-6.94,8.98-1.08,16.96,1.25,21.32,6.24,5,5.7,5.93,15.48,5.14,22.72-.83,7.56-.94,14.95-.94,20.54,0,8.89,7.23,16.11,16.11,16.11h74.16c8.88,0,16.11-7.22,16.11-16.11v-64.39c1.91-1.51,3.78-3.09,5.62-4.71,6.99-6.19,18.17-12.43,27.4-12.43,6.87,0,14.2,7.2,14.2,27.39v54.14c0,8.89,7.23,16.11,16.11,16.11h74.15c8.88,0,16.11-7.22,16.11-16.11v-98.07c28.7-18.54,53.67-60.84,53.67-118.37v-239.77c0-5.33,4.33-9.66,9.66-9.66h74.16c5.33,0,9.66,4.33,9.66,9.66v260.98c-44.14,20.47-78.77,52.69-99.57,93.3l-.36.69v101.24c0,8.89,7.23,16.11,16.11,16.11h74.16c8.88,0,16.11-7.22,16.11-16.11v-190.55c64.11-28.77,143.18-30.84,208.76,2.05,15.68,7.86,31.33,17.85,46.46,27.52,38.45,24.55,78.17,49.95,123.29,43.85,36.55-4.95,65.15-29.59,92.8-53.41,22.41-19.31,45.59-39.28,72.91-48.76,54.25-18.82,107.19,5.38,163.24,31.01,44.08,20.14,89.64,40.92,136.97,39.98,53.4-1.13,101.77-29.85,148.55-57.63,54.56-32.4,106.07-63.01,164.39-53,30.78,5.29,60.17,22.12,88.59,38.41,43.38,24.86,84.37,48.34,130.04,34.3,25.3-7.78,44.98-26.24,64.02-44.09,17.51-16.42,35.61-33.39,57.78-41.53,35.13-12.9,73.74-2.14,111.08,8.27l7.55,2.09c62.85,17.33,127.52,27.86,192.61,31.65v-6.44c-64.51-3.78-128.61-14.24-190.9-31.42Zm-2136.31,24.07c-22.8,5.74-46.69,10.02-73.02,13.07l-.91.1c-1.27.14-1.62-.73-1.73-1.26-.12-.65-.03-1.48,1.12-1.8l5.29-1.46c22.86-6.33,46.52-14.84,74.45-26.78,2.75-1.17,5.63-2.58,8.67-4.08,8.77-4.29,18.44-9.03,27.12-9.03,2.61,0,5.13.43,7.52,1.43,5.06,2.13,9.46,6.07,12.66,11.16-19.89,7.16-40.32,13.4-61.17,18.65Zm50.94,197.03c-.73.37-1.45.72-2.16,1.08l-3.07,1.56c-7.74,3.93-15.75,8-24.1,10.13-5.97,1.51-17.42,3.21-27-2.46-6.48-3.82-11.63-10.68-15.77-20.95-1.88-4.66-3.88-10.74-2.76-16.47,1.62-8.3,8.98-10.19,19.16-10.19,2.81,0,5.83.15,9,.34,2.71.16,5.28.32,7.59.32h29.44c5.33,0,9.67,4.33,9.67,9.66v26.98Zm153.59-20.95c-9.94,7.51-20.89,13.51-32.64,17.87-9.83,3.66-17.16,4.79-23.81,3.66-8.98-1.53-17.79-7.88-24.16-17.44-6.37-9.57-9.95-17.29-11.97-25.79-1.14-4.84-1.65-15.28-1.65-21.14,0-15.49.19-30.66.37-45.32.18-14.69.38-29.88.38-45.41,0-5.33,4.33-9.66,9.66-9.66h74.16c5.33,0,9.66,4.33,9.66,9.66v133.57Zm153.6-34.1c-4.01,2.3-8.07,4.1-12.13,5.37-24.66,7.71-49.82,5.28-65.65-6.36-10.28-7.55-15.71-18.49-15.71-31.65v-194.37c0-5.33,4.34-9.67,9.67-9.67h74.15c5.33,0,9.67,4.34,9.67,9.67v227.01Zm153.59,101.65c0,5.33-4.33,9.67-9.66,9.67h-74.16c-5.33,0-9.66-4.34-9.66-9.67v-99.68c19.94-38.5,53.51-68.49,93.48-87.86v187.54Z"/>
  </g>
</svg>