<?xml version="1.0" encoding="UTF-8"?>
<svg id="Ebene_2" data-name="Ebene 2" xmlns="http://www.w3.org/2000/svg" viewBox="0 0 371.5 371.5">
  <defs>
    <style>
      .cls-1 {
        fill: none;
        stroke: #505050;
        stroke-linecap: round;
        stroke-linejoin: round;
        stroke-width: 16.5px;
      }
    </style>
  </defs>
  <g id="Layer">
    <g>
      <g>
        <g>
          <path class="cls-1" d="M77.71,248.1V39.12c0-17.05,13.82-30.87,30.87-30.87,17.05,0,30.87,13.82,30.87,30.87V248.1c18.44,10.68,30.87,30.57,30.87,53.41,0,34.1-27.64,61.74-61.74,61.74-34.1,0-61.74-27.64-61.74-61.74,0-22.84,12.43-42.73,30.87-53.41Z"/>
          <g>
            <line class="cls-1" x1="47.8" y1="52" x2="8.25" y2="52"/>
            <line class="cls-1" x1="47.8" y1="90.59" x2="28.25" y2="90.59"/>
            <line class="cls-1" x1="47.8" y1="129.18" x2="8.25" y2="129.18"/>
            <line class="cls-1" x1="47.8" y1="167.76" x2="28.25" y2="167.76"/>
            <line class="cls-1" x1="47.8" y1="206.35" x2="8.25" y2="206.35"/>
          </g>
          <line class="cls-1" x1="108.58" y1="206.35" x2="108.58" y2="274.01"/>
        </g>
        <path class="cls-1" d="M86.87,284.63c-3.63,4.66-5.79,10.52-5.79,16.89,0,15.19,12.31,27.5,27.5,27.5,15.19,0,27.5-12.31,27.5-27.5,0-15.19-12.31-27.5-27.5-27.5"/>
      </g>
      <g>
        <path class="cls-1" d="M204.07,266.26c43.96,0,79.59-35.63,79.59-79.59,0-43.96-35.63-79.59-79.59-79.59"/>
        <line class="cls-1" x1="363.25" y1="186.67" x2="325.7" y2="186.67"/>
        <line class="cls-1" x1="325.7" y1="256.89" x2="309.4" y2="247.48"/>
        <line class="cls-1" x1="283.66" y1="324.52" x2="264.88" y2="292"/>
        <g>
          <line class="cls-1" x1="204.07" y1="348.25" x2="204.07" y2="308.29"/>
          <line class="cls-1" x1="204.07" y1="23.25" x2="204.07" y2="65.04"/>
        </g>
        <line class="cls-1" x1="283.66" y1="48.82" x2="264.88" y2="81.34"/>
        <line class="cls-1" x1="325.7" y1="116.45" x2="309.4" y2="125.86"/>
      </g>
    </g>
  </g>
</svg>